<?xml version="1.0" encoding="utf-8"?>
<!-- Generator: Adobe Illustrator 21.0.2, SVG Export Plug-In . SVG Version: 6.00 Build 0)  -->
<svg version="1.1" id="Layer_1" xmlns="http://www.w3.org/2000/svg" xmlns:xlink="http://www.w3.org/1999/xlink" x="0px" y="0px"
	 viewBox="0 0 1451 357" style="enable-background:new 0 0 1451 357;" xml:space="preserve">
<style type="text/css">
	.st0{fill:#F1F2F2;}
	.st1{fill:#9E9E9E;}
	.st2{fill:#A6A6A6;}
	.st3{fill:#009688;}
	.st4{fill:#00A695;}
	.st5{fill:#673AB7;}
	.st6{fill:#5E35A6;}
	.st7{fill:#3F51B5;}
	.st8{fill:#3A4AA6;}
	.st9{fill:none;}
	.st10{fill:#4D4D4D;}
</style>
<g id="Map">
	<g>
		<path class="st0" d="M520.1,126.1c-0.7-0.5-2.7-0.6-3.1-1.1c-1.3-1.5,4.3,0.3,5-1.1c0.5-0.9-0.5-4.3-0.7-5.3
			c-0.3-1.8-0.6-3.8-2.5-4.7c-1.6-0.7-3.5-0.3-5.2-0.6c-2.8-0.5-4.7-2.8-4.9,1.5c-1.6,0.1-2.1-0.3-3.5-0.7c-1.1-0.3-1.3,0-2.4,0.2
			c-1.3,0.2-2.7-0.1-4,0c-1.4,0.2-2.9,1-4.2,0.2c-0.9-0.6-1.9-1.8-2.7-2.7c-1.4-1.6-1.7-1.7-4.1-1.6c-1.4,0-2.7,0.5-4.1,0.7
			c-3.7,0.3-3.3-3.1-5.9-4.5c-0.8-0.4-3.8-0.4-4.7-0.2c-1.2,0.3-1.7,1.6-3,1.4c-2.4-0.3-0.9-3-4.2-2.1c-0.9,0.3-2.2,0.8-2.7,1.5
			c-0.7,0.9,0.1,1.5-1.1,2.1c-1.3,0.6-1.6-0.3-2.6-0.5c-0.8-0.2-1.7,0.1-2.5,0c-1.3-0.2-3-1.1-4.2-0.5c-1.5,0.7-0.7,1.4-2.5,1
			c-0.9-0.2-2.7-1.1-3.2-2c-0.6-1,0.1-2.1-0.3-3c-0.7-1.5-5-1.5-6.5-1c-0.8,0.3-1.2,1.3-2,1.6c-0.8,0.2-1.7-0.3-2.5-0.4
			c-2-0.3-3.7-1.4-5.8-1.6c-1.9-0.2-4.4,1.1-5.1-1.1c-0.6-1.7,0.8-4.2-0.4-5.9c-1.4-1.9-4.3-0.3-6-0.3c-1.7,0-2.8-0.5-3.8-1.7
			c-1.2-1.5-2-2.6-4.6-2c-0.7,0.2-1.9,0.7-2.3,1.4c-0.2,0.3,0,1.2-0.2,1.4c-0.4,0.4-0.7,0.3-1.1,0.6c-1.6,1.2-2.5,1.9-4.8,1.6
			c-1.4-0.2-1.9-1-3.3-0.9c-0.6,0-1.3,0.5-1.8,0.7c-0.7,0.3-1.4,0.3-2.1,0.5c-1.5,0.5-2.5,1-4.2,1.2c-1.7,0.2-2.8,0.9-3.2,2.5
			c-0.2,0.8,0.5,1.3-0.2,1.8c-0.8,0.7-1.7-0.3-2.4-0.4c-1.6-0.2-2.6,0.3-4.1,0.9c-1.1,0.4-3.2,0.6-2.3,2.3c0.8,1.5,2.9,0.5,2.4,3
			c-2.2,0.1-3.4-1.1-5.3-1.2c-0.4,0-2.2,0.3-2.5,0.5c-1,0.7-0.5,0.8-0.9,2.1v-0.1c-0.6,0.3-1.1,0.1-1.4-0.4
			c-0.2-0.3-0.5-0.8-0.5-1.2c0-0.5,0.5-0.9,0.6-1.4c0.1-0.4-0.1-0.8-0.3-1.1c-0.8-1.3-1,1.7-1.2,1.9c-0.4,0.4-1-0.2-1.3,0.6
			c-0.2,0.8,0.4,1.5,0.4,2.3c0,0.3-0.1,0.6-0.1,0.9c0,0.5,0.4,1,0.7,1.4c0.3,0.4,0.7,0.8,1.1,1c1,0.5,2.3-0.1,3.3,0.5
			c0.6,0.3,1.4,1.2,1.5,1.9c0,0.3,0.2,1,0.1,1.3c-0.1,0.3-0.8,0.4-1.2,0.3c-0.5-0.1-0.3-0.3-0.5-0.8c-0.1-0.5-0.4-0.9-0.8-1.2
			c-0.9-0.6-3.2-0.7-3.7,0.5c-0.2,0.5,0.1,1,0.3,1.4c0.3,0.6,0.6,1.2,0.4,1.9c-0.4,1.7-3.2,1.6-4.5,1.6c-0.7,0-1.4-0.1-2.1-0.2
			c-0.2-1,1.1-1.3,1.8-1.6c0.9-0.3,1.4-1.4,1.6-2.3c0.2-0.7,0.5-1.6,0-2.2c-0.2-0.3-0.4-0.3-0.6-0.7c-0.1-0.4,0-0.8,0.1-1.2
			c0-0.7-0.2-1.3-0.1-2c0.1-0.4,0.7-1.3,0.4-1.7c-0.2-0.3-0.5-0.2-0.7-0.5c-0.5-0.9,1.8-2.2,0.5-2.9c-0.2-0.1-0.6-0.1-0.9-0.2
			c-0.3-0.1-0.5-0.2-0.8-0.3c-0.5-0.1-1.1-0.1-1.6,0.1c-0.9,0.3-1.2,0.7-1.4,1.6c-0.1,0.4-0.2,0.7-0.5,1c-0.3,0.2-0.7,0.3-0.9,0.5
			c-0.6,0.5-0.8,1.5-0.7,2.3c0.1,1.3,1.1,1.6,1.8,2.6c0.4,0.6,0.3,1.1,0.1,1.8c-0.1,0.5,0,0.4,0,0.8c0.1,1.5-2-0.3-2.6-0.5
			c-1.3-0.4-2.9-0.4-4-1.3c-0.5-0.4-0.6-1.4-1-1.7c-0.5-0.4-2-0.2-2.7-0.3c-1,0-2.2-0.1-2.4,1.1c-0.1,1.1,2.2,1.8,0.2,2.4
			c-1.2,0.4-1.5-0.7-2.4-0.8c-1-0.1-1.5,1-2.3,1.3c-0.6,0.2-1.3,0.1-2,0.1c-0.9,0-2.8,0.8-3.5,0.4c-0.8-0.4,0.1-0.4,0-1.1
			c-0.5-0.1-0.9-0.3-1.4-0.4c-0.9-0.1-1.8,0.4-2.6,0.8c-0.5,0.2-0.9,0.7-1.4,0.9c-0.6,0.3-1,0.2-1.5,0.9c-0.4,0.6-0.5,1.6-1.2,2
			c-0.6,0.4-1.9,0.2-2.6,0c-0.5-0.2-1-0.2-1-0.8c-0.1-1,0.3-0.6,0.9-0.9c0.5-0.3,0.6-0.2,0.5-0.9c0-0.2-0.3-0.4-0.3-0.6
			c-0.1-0.4,0-0.7-0.3-1c-0.4-0.5-1.4-0.7-2-0.5c-0.7,0.2-0.7,0.5-0.7,1.3c0,1,1.7,3.7-0.3,3.9c-0.6,0-0.9-0.4-1.4-0.4
			c-0.8,0.1-1.2,1.2-1.9,1.5c-0.7,0.3-1-0.1-1.4,0.7c-0.4,0.7-0.1,1.8-0.8,2.3c-1.4,1-2.2-1.2-3.5-0.7c-1,0.4,0.4,2.6-1.5,1.7
			c-0.5-0.2-0.7-0.6-1.3-0.7c-1-0.2-1.6,0.4-1.8-0.8c-0.2-0.8,0.3-1.8-0.2-2.5c-0.8-1.1-3.4-0.6-3.3-2.5c1.5-0.7,2.1,0.9,3.3,1.4
			c0.9,0.4,2,0,2.9,0.3c1.7,0.5,3.4,0.3,5.1-0.1c0.7-0.2,2-0.6,2.1-1.4c0.2-1.1-1.6-1.6-2.5-1.9c-1.4-0.6-3.1,0.2-3.9-1.3
			c-0.6-1.2-0.7-1.6-2.3-1.9c-2.9-0.6-5.5,0.5-7.3-2.2c-1-1.5-3.2-1.9-4.9-1.6c-0.8,0.1-1.6,0.5-2.4,0.7c-0.6,0.2-1.1,0.6-1.7,0.8
			c-0.6,0.2-1,0-1.6-0.1c-1.3-0.1-1.7,0.7-2.7,1.5c-1,0.8-1.7,0.8-2.8,1.2c-1.9,0.7-2,3-3.9,3.9c-1.6,0.7-2.8,2.2-4.4,2.8
			c-1.2,0.4-2.8,1.1-3.3,2.4c-0.2,0.5-0.1,1.1-0.3,1.6c-0.5,0.7-1.5,0.7-2,1.4c-0.2,0.4-0.2,0.9-0.3,1.1c-0.5,0.7-1.5,0.5-2.3,0.9
			c-0.9,0.4-1.5,1.2-2.4,1.7c-1.1,0.6-1.7,1-1.7,2.3c0,0.8,0.1,1.4,0.2,2.2c0,1,0.1,0.7,0.7,1.3c0.5,0.5,0.6,1,1,1.7
			c0.5,0.9,1.3,1.4,2.4,1.1c1.7-0.4,1.9-2.2,3.2-2.9c1.4-0.8,1.6,0.5,1.7,1.5c0,0.2,0.2,1,0.3,1.1c0.4,0.6,1.3,0.7,1.6,1.5
			c0.4,0.9-0.1,2.6,0.5,3.2c0.1,0.2,1.4,0.6,1.6,0.6c0.8,0.2,1.2-0.2,1.7-0.7c0.5-0.4,1.1-0.8,1.2-1.4c0.1-0.6-0.1-0.5-0.2-1
			c-0.2-1.4,1.1-1.9,1.9-2.9c0.6-0.7,1.3-2.5,1-3.5c-0.2-0.9-1.4-0.5-1.5-1.7c-0.2-1.6,0.8-2.8,2.1-3.4c0.5-0.3,1.3-0.5,1.6-1.1
			c0.3-0.6-0.2-1.5,0.2-2c0.4-0.5,1.3-0.7,1.8-1.1c0.7-0.7,0.7-1.2,1.2-1.9c0.5-0.9,1.1-1,2-1c0.4,0,0.7,0,1.1,0.2
			c0.3,0.2,0.4,0.6,0.7,0.7c0.3,0.2,0.7,0.1,1,0.3c2.2,1.4-1.9,3.1-2.6,3.6c-0.7,0.5-2,1.3-2.3,2.2c-0.2,0.5,0.2,1.1,0,1.5
			c-0.3,0.7-1.2,1-0.9,2c0.2,0.6,0.9,0.8,0.9,1.5c1.8,0.7,2.4,1,4.1,0c1.2-0.7,1.7,0.1,2.9,0c1,0,5.3-0.4,4.3,1.5
			c-0.6,1.1-2.6,1.4-3.6,1c-0.7-0.3-0.9-0.6-1.7-0.7c-0.5,0-1.2,0-1.7,0.1c-2,0.3-1.5,1.3-0.3,2.3c1.1,0.8,1.2,2.8-0.1,3.7
			c-0.4,0.3-1.1,0.3-1.6,0.1c-0.9-0.5-0.3-1.3-0.7-1.9c-0.6-1.1-2.1,0-2.2,0.9c-0.2,1.1,0.6,1.8,0,2.8c-0.5,0.8-1.8,1.1-2.7,1.6
			c-1,0.5-1.9,0.7-3,0.6c-0.8-0.1-1.4-0.3-2.2,0c-0.6,0.2-1,0.7-1.5,0.9c-0.6,0.2-1.7,0.3-2.4,0.1c-0.5-0.1-0.8-0.5-1.3-0.5
			c-0.9,0-2.2,0.9-3.1,0.2c-0.4-0.3-0.9-1.8-0.9-2.3c0-0.9,0.3-0.3,0.5-0.8c0.1-0.3,0.4-0.4,0.1-0.7c-0.3-0.3-1.1-0.1-1.4,0.1
			c-0.5,0.4-0.6,1-0.8,1.6c-0.1,0.4-0.3,0.7-0.3,1.2c0,0.3,0.2,0.6,0.2,0.9c-0.1,0.8-0.5,0.6-0.9,1c-0.3,0.3-0.4,0.7-0.8,0.8
			c-0.5,0.2-1.3-0.3-1.9-0.2c-1.1,0.3-1.7,2-2.6,2.7c-0.7,0.5-1.6,1-2.4,1.3c-0.6,0.2-1.3,0.2-1.9,0.4c-1,0.4-0.7,1.1-1.3,1.9
			c-0.2,0.3-1.4,1.1-1.8,0.8c-0.5-0.3,0-1.1-0.5-1.2c-1.3-0.5-0.1,1.9-0.9,2.3c-0.6,0.3-1.1-0.2-1.7-0.3c-0.6-0.1-1.2,0.1-1.8,0.1
			c-0.8,2,3.1,3,3.7,4.2c0.7,1.3,0.6,3.7-1.1,3.9c-1.4,0.2-2.9,0.2-4.3,0.6c-0.8,0.2-1.2,0.8-2.1,0.7c-1.1-0.1-1.6-0.9-2.2,0.3
			c-0.3,0.6-0.3,1.4-0.6,2c-0.3,0.9-0.6,1.7-0.5,2.7c0.1,0.7,0.4,1.3,0.5,2c0.1,0.7-0.3,1.8,0.1,2.5c0.4,0.8,1.4,0.8,2.2,0.7
			c0.3,0,0.7-0.2,0.9-0.1c0.1,0,0.2,0.4,0.4,0.4c0.7,0.2,0.9,0,1.5-0.1c0.9-0.1,1.7,0.3,2.7,0.1c1.3-0.2,2.4-0.7,3.5-1.4
			c0.4-0.2,1.5-0.9,1.6-1.2c0.2-0.6-0.5-1-0.6-1.5c-0.3-1.5,1.7-1.3,2.4-2c0.4-0.4,0.3-1,0.8-1.4c0.3-0.3,0.7-0.2,1-0.3
			c0.2-0.1,0.7-0.3,0.8-0.6c0.4-1-1.4-2.1,0.8-2.2c0.7,0,1,0.5,1.6,0.4c0.5,0,1.3-0.7,1.7-0.9c0.9-0.4,1-0.3,2-0.2
			c0.7,0,0.9,0,1.6-0.4c0.9-0.5,1.9-0.9,2.4,0.1c0.4,0.7,0.1,1.7,1.1,2c0.3,0.1,0.8-0.1,1,0c0.2,0.1,0.3,0.7,0.5,0.9
			c0.4,0.6,1.3,1.4,2,1.7c0.6,0.2,1.6,0,2,0.6c0.2,0.3,0,0.7,0.2,1.1c0.2,0.4,1.1,1,1.4,1.3c0.3,0.3,0.6,0,0.8,0.7
			c0.2,0.5-0.1,1.2-0.2,1.7c0.9,0.4,1.1,0.4,1.6-0.3c0.2-0.3,0.6-0.9,0.5-1.3c-0.2-0.7-0.8-0.5-1.2-1c-1.2-1.6,2.2-0.2,2.4-1.3
			c0.2-1.2-3.3-1.9-4-2.1c-0.4-0.1-1.4-0.2-1.7-0.4c-0.3-0.3-0.2-1.1-0.4-1.4c-0.3-1-0.8-0.8-1.5-1.4c-0.8-0.7-1.1-1.6-1-2.6
			c0.2-1.3,1.4-1.5,2.6-1c1.5,0.7,2,2.8,3.6,3.3c0.8,0.3,0.9,0.1,1.5,0.8c0.3,0.4,0.6,0.8,0.9,1.1c0.3,0.3,0.8,0.6,1,1
			c0.2,0.2,0.1,0.6,0.3,0.8c0.1,0.2,0.6,0.2,0.6,0.4c0.7,1.4-0.5,2.9,0.9,4.2c0.5,0.5,1.6,0.6,1.9,1.3c0.1,0.3-0.1,0.7,0.1,1
			c0.1,0.1,1,0.6,1.2,0.6c1.5,0.5,1.6-0.8,1.3-1.8c-0.4-1.2-1.5-1.3-0.8-2.7c0.2-0.4,0.5-0.5,0.7-0.9c0.2-0.5-0.1-0.9,0.3-1.3
			c0.8-0.8,1.8,0.1,2.5,0.4c0.6,0.2,0.9,0.2,1.3,0.6c0.3,0.4,1.1,1.1,1.1,1.6c0,0.6-0.6,0.8-0.4,1.5c0.1,0.3,0.4,0.4,0.5,0.7
			c0.1,0.4,0.1,0.8,0.1,1.2c0.9,0.4,2.2,0.6,3.1,0.8c1.2,0.2,1.7,0.6,2.7,1.1c1.5,0.8,1.5,1,3,0.3c1.2-0.6,1.7-0.2,2.9-0.1
			c0.6,0,2-0.5,2.4-0.1c0.5,0.5-1,2.4-1.3,2.8c-0.5,0.9-0.8,1.3-0.7,2.3c0.1,1.3,0.2,1.9-1.1,2.7c-1,0.7-0.8,0.2-1.8-0.1
			c-0.5-0.1-1,0-1.4,0c-1.4-0.2-2.8-0.8-4.2-0.5c-0.7,0.1-1.4,0.3-2.1,0.3c-0.7,0-1.3-0.4-2.1-0.4c-0.7,0-1.3,0.3-2,0.1
			c-0.7-0.2-1.1-0.5-1.9-0.6c-0.4-0.1-0.5,0-0.8-0.2c-0.3-0.2-0.3-0.8-0.7-1.1c-0.7-0.4-2.4-0.1-3,0.4c-1.6,1.4,0.3,3.4-2.7,3.4
			c-0.9,0-1.5-0.2-2.2-0.7c-0.5-0.4-0.9-0.5-1.4-0.7c-0.5-0.2-0.8-0.7-1.2-0.9c-0.7-0.4-2-0.4-2.9-0.7c-0.8-0.2-1.7-0.2-2.4-0.4
			c-0.6-0.2-0.9-0.8-1.5-1c-0.3-0.1-0.6-0.1-0.9-0.2c-1.6-0.5-0.6-1.1,0.1-2.1c0.5-0.8,0.7-3-0.3-3.7c-0.4-0.2-1.4-0.1-1.8,0
			c-0.9,0.2-1.5,0.9-2.4,1c-0.6,0.1-1.2-0.1-1.8-0.2c-0.7-0.2-0.9-0.3-1.6-0.2c-0.5,0.1-1.1,0.3-1.6,0.3c-0.5-0.1-0.7-0.4-1.3-0.4
			c-0.4,0.1-0.8,0.3-1.2,0.4c-0.4,0.1-1.1-0.1-1.5,0.1c-0.7,0.3-0.5,1-0.9,1.4c-0.5,0.5-1.3,0.5-1.9,0.6c-0.5,0.1-1,0.4-1.5,0.4
			c-0.6,0-1-0.3-1.5-0.4c-0.6-0.1-1.1,0-1.5-0.2c-0.6-0.2-0.7-0.6-1.2-0.9c-2.2-1-1.8,2.3-2.2,3.1c-0.5,0.8-1.9,0.8-2.6,1.4
			c-1.1,0.9-1.2,2-1.5,3.2c-0.2,0.8-0.7,1.4-1,2.1c-0.4,0.9-0.5,1.8-1.6,2.3c-0.7,0.3-1.3,0.1-2,0.2c-1.3,0.3-1.6,1.4-2.5,2.2
			c-0.9,0.8-1.2,0.3-1.5,1.5c-0.2,1.1-0.6,2.2-1.2,3.1c-0.5,0.8-0.6,1-0.7,1.9c-0.2,1.1,0.1,1.4,0.4,2.4c0.3,1-0.1,1.9-0.1,2.9
			c0,0.4,0.2,0.8,0.2,1.2c-0.1,0.5-0.4,1-0.5,1.6c-0.1,0.5,0.1,1.1,0,1.6c-0.1,0.6-0.2,0.3-0.5,0.8c-0.6,1.2,0.2,2,1.1,2.9
			c0.9,0.9,1.4,1.7,2,2.9c0.5,1,1,2.3,1.9,3c0.6,0.4,1.6,0.7,2.2,1.3c0.5,0.5,0.4,1.4,0.8,2c0.5,0.5,0.6,0.3,1.3,0.5
			c0.6,0.2,0.8,0.5,1.3,0.8c0.6,0.3,0.8,0.1,1.4,0.3c0.7,0.2,1.4,1.3,2.2,1.2c0.2,0,0.9-0.6,1.2-0.7c0.6-0.3,0.7-0.4,1.4-0.4
			c1.1-0.1,2,0.2,3,0.3c1,0.1,2.4,0.4,3.3,0.1c0.9-0.3,1.5-1.1,2.3-1.7c1.1-0.8,3.5-1.1,4.7-0.2c0.5,0.3,0.7,0.9,1.2,1.1
			c0.6,0.3,1.5,0,2.2,0.2c1,0.3,1.3,1.2,2.4,1.3c1.9,0.2,3.3,1,2.6,3.3c-0.1,0.4-0.3,0.7-0.3,1.1c0,0.1,0.1,0.3,0.1,0.4
			c-0.1,0.3-0.3,0.3-0.5,0.6c-1.3,2.3,1.8,3.5,3,5.2c0.6,0.8,0.4,2.3,1,3c0.3,0.3,0.7,0.2,1.1,0.5c0.3,0.3,0.4,1.1,0.6,1.6
			c0.8,2,0.4,4,0.5,6c0,1.2-0.8,1.6-1.3,2.4c-0.5,0.8-0.1,1.9-0.5,2.7c-0.4,0.9-1.3,1.5-1.1,2.6c0.1,0.6,0.6,1,0.9,1.5
			c0.3,0.5,0.2,1.1,0.5,1.7c0.2,0.6,0.7,1.1,1.2,1.5c0.3,0.2,0.2,0.3,0.6,0.4c0.2,0.1,0.6-0.1,0.7,0c0.8,0.5,0.3,1.8,0.7,2.6
			c0.4,0.9,1.1,1.6,1.2,2.6c0.2,1,0.1,2.1,0.2,3.1c0.1,0.6,0,1.3,0.2,1.8c0.2,0.6,0.4,0.5,0.8,1c0.6,0.6,0.6,1.4,0.8,2.2
			c0.3,1,1,1.8,1.4,2.8c0.5,1.3,0.9,3.6,2.4,4.3c0.5,0.3,1.2,0,1.7-0.1c0.9-0.2,1.6-0.3,2.5-0.3c0.4,0,1,0.2,1.4,0.2
			c0.6,0,1.1-0.3,1.7-0.5c0.4-0.1,1,0,1.4-0.2c0.6-0.3,0.7-1.3,1.4-1.5c0.7-0.2,1.5,0.2,2.4-0.2c1.1-0.5,1.8-1.7,2.6-2.6
			c1-1,1.9-2.1,2.8-3.1c0.7-0.7,2.1-1.5,2.1-2.6c0-0.9-1.6-1.3-1.1-2.2c0.4-0.8,1.7-0.2,2.4-0.5c0.8-0.5,2.3-2.3,2.1-3.4
			c-0.1-0.5-0.4-0.4-0.7-0.8c-0.3-0.5-0.3-1-0.4-1.5c-0.1-1,0.3-1.3,0.6-2.1c-2.5,0.2,2.3-3.3,2.7-3.5c1-0.6,1.9-1.5,3-2.1
			c0.7-0.4,1.3-0.5,1.9-1.2c1.3-1.6,0.7-3.5,0.3-5.3c-0.1-0.4-0.2-0.8-0.3-1.2c-0.2-0.7-0.5-1.4-0.7-2.1c-0.3-1.3,0.2-3.1-1.1-3.9
			c-0.3-0.2-0.8,0-0.9-0.4c-0.1-0.4,0.3-0.9,0.5-1.2c0.6-0.8,1.5-1,2.1-1.7c0.8-0.9,0.9-2.2,1.6-3.2c0.4-0.5,0.8-1,1.1-1.7
			c0.2-0.7,0.1-1,0.8-1.3c0.6-0.3,1.5-0.4,2.1-0.7c0.6-0.2,2-0.4,2.3-1c0.1-0.2,0-0.8,0.1-1.1c0.2-0.5,0.6-0.9,0.9-1.4
			c0.6-0.8,1-1.4,1.9-1.9c1-0.5,1.5-0.7,2.2-1.6c0.5-0.7,1-1.3,1.1-2.1c0.1-0.5-0.1-1.1,0-1.6c0.2-1.4,1.4-2.2,1.7-3.6
			c0.4-1.9-1.6-0.6-2.5-0.1c-1,0.6-1.7,0.5-2.7,0.3c-0.9-0.1-0.6,0-1.4,0.3c-0.6,0.2-1.4,0.3-2,0.3c-0.8-0.1-1.2-0.6-1.8-1
			c-1.2-0.8-1.1-1.7-2-2.9c-0.7-1-1.7-0.2-2.5-1c-0.2-0.2-0.2-0.8-0.5-1.1c-0.4-0.3-0.7-0.1-1.1-0.3c-0.7-0.5-0.5-1.6-0.5-2.3
			c-1-0.2-1.6-0.6-1.8-1.5c-0.1-0.4,0-1.1-0.2-1.4c-0.3-0.4-1-0.3-1.3-0.6c-1.3-1.3-0.9-3.6-2.2-4.9c-1-1-1-2.2-1.7-3.2
			c-0.7-1-1.4-1.3-1.5-2.6c-0.1-0.6-0.6-1.2-0.6-1.8c0-1.3,1.8-1.2,2.8-1.2c0.2,0.5,0.3,1.1,0.5,1.6c0.3,0.7,0.7,0.9,1.2,1.4
			c0.7,0.7,0.6,1.1,1,1.9c0.2,0.7,0.7,1.2,1.2,1.8c0.5,0.6,0.9,1.3,1.5,1.8c0.7,0.6,1.3,1,1.7,1.9c0.3,0.6,0.3,1.6,0.7,2.1
			c0.3,0.4,0.7,0.3,1,0.6c0.7,0.6,0.6,1.6,1.1,2.5c0.4,0.5,0.6,0.6,0.8,1.2c0.3,0.8,0,1.2,0.7,1.9c0.9,0.9,0.6,1,0.8,2.3
			c0.1,0.8,0.3,1,1,1.3c1.1,0.5,1.9,0,2.8-0.5c1.2-0.7,2.3-0.7,3.6-1.1c1.5-0.5,3-1.2,4.3-2.2c1.1-0.9,1.7-1.6,3.1-1.8
			c2.7-0.3,4.1-0.9,5.8-2.8c0.4-0.4,1-0.6,1.4-1c0.4-0.4,0.5-0.9,0.8-1.5c0.3-0.6,0.6-0.9,0.4-1.4c-0.1-0.4-0.6-0.5-0.8-0.7
			c-0.5-0.4-0.5-0.5-0.8-1c-0.5-1-0.8-0.8-1.6-1.4c-1.2-0.7-0.3-2.3-2.1-2.3c-1.5,0-2.7,2.5-4.2,1.9c-0.5-0.2-0.6-1.1-0.9-1.5
			c-0.6-0.8-1.2-0.5-2.2-0.6c-0.1-0.7,0-0.9-0.4-1.3c-0.6-0.5-1.1-0.5-1.6-1.2c-0.4-0.7-0.2-1.3-0.4-2c-0.3-0.8-0.9-0.3-1.5-1
			c-1.4-1.4,1.4-2,2.4-1c0.5,0.4,0.5,0.9,1.1,1.4c0.6,0.5,1.4,0.7,2,1.2c0.3,0.2,0.6,0.9,0.7,1c0.6,0.4,1.1,0.1,1.6,0.6
			c0.6,0.6,0.2,0.8,1.2,0.8c1.1,0,2.1-0.6,3.2-0.4c1.1,0.2,0.7,1.2,1.5,1.9l2.2,0.3c3.4,2.9,8.2-2.2,11.3,1.1
			c0.6,0.6,1.1,1.1,1.6,1.6c0.3,0.3,0.9,0.1,1.2,0.5c0.3,0.4-0.2,1,0,1.4c0.7,1.2,3.9,2.4,4.8,0.7c1.1,1.5,0.9,3.6,1.5,5.3
			c0.5,1.6,1.1,3.1,1.8,4.7c0.9,2.2,1.4,4.4,2.9,6.4c1.2,1.6,1.9,3.1,3.5,1.2c1.8-2.1,1.2-4,1.7-6.5c0.3-1.3,0.9-1.9,1.9-2.8
			c1.8-1.7,3-4.2,4.8-5.8c1-0.8,2.9-1.8,4.2-2.1c0.7-0.2,1.5,0,2.3-0.2c0.8-0.2,1.5-0.9,2.3-1c3.5-0.6,0.5,9.1,6.2,8.3
			c0.8-0.1,2.5-0.9,3.3-0.7c1.1,0.4,1.3,2.1,1.7,3.2c0.3,0.8,1,1.6,1.2,2.5c0.5,1.5,0.1,3.5-0.3,4.9c-0.5,2.2,0.7,2.6,1.5,4.7
			c0.8,2,1.5,4.5,3.1,6.1c1.6,1.5,3.3,1.6,3.5-0.8c0.2-2.5-0.6-4.2-2.6-5.5c-1.7-1.1-2.9-1.7-3.6-3.8c-0.3-1-1-4.4,0.1-5.1
			c1-0.7,3,1,3.7,1.5c1.5,1.2,1.1,2.3,2,3.6c1.7,2.2,3.7-0.5,5-1.8c1.5-1.5,3.3-3.2,2.4-5.7c-0.8-2.3-3.7-2.3-4.6-4.3
			c-1.1-2.2-0.7-5,1.9-5.7c1.3-0.3,3.2,0.1,4.6,0c2-0.1,3.2-0.7,4.9-1.6c3.1-1.6,7.1-2.4,9.7-4.6c2-1.7,2.3-3.2,1.9-5.8
			c-0.1-1-0.4-1.3-0.7-2.1c-0.4-1.1-0.2-1.9-0.5-2.9c-0.4-1.6-3-2.1-2.7-3.5c0.3-1.6,2.3-1.5,3.2-1.9c2.5-1.3-0.3-0.9-0.5-2.2
			c-1.4-0.3-5.2,1-5.3-1.4c0-0.9,1.8-2.8,2.5-3.4c0.9-0.7,1.7-1.1,3-0.8c0.3,0.9,0.2,1.8,0.2,2.8c1.8,1.8,2.6-1,4.2,0.2
			c0,0,1.1,1.8,1.1,2c0.4,1,0.4,1.5,0.5,2.7c0.1,0.9,0.8,3.5,1.8,3.7c1.1,0.2,3.2-2.1,3.5-3c0.6-1.9-1-3-1.3-4.6
			c-0.3-1.8,0.4-1.8,1.2-2.9c1.5-1.9,2.3-3.6,5-3.6c2.5,0,3.6-0.4,5.2-2.7c0.8-1.2,1.2-2.5,2.1-3.6c1.1-1.3,2.7-2.3,3.1-4.2
			c0.3-1.3,0.2-2.3,0.7-3.6c0.4-1.1,0.9-2.1,0.8-3.3c-0.1-1-0.4-2-1.6-2.3c-1.4-0.3-1.3,0.6-2.1,1.3c-0.1-0.3-0.4-0.5-0.6-0.9
			c-1.5,0.3-2-1.2-3.8-1.1c-0.8-3.4,5.7-5.1,7.6-6.8c1.3-1.2,1.8-2.3,3.7-2.7c1.4-0.3,3.5-0.4,4.9-0.3c1.1,0.1,2.1,0.9,3.2,0.4
			c1.3-0.6,2-1.5,3.7-0.8c1.3,0.6,1.6,1.7,3.3,1.6c2.3-0.3,1.1-1.4,1.4-2.9c0.4-1.6,3.4-3.3,4.9-3.7c0.5-0.1,2-0.4,2.4-0.1
			c0.6,0.3,0.3,1.4,1,1.7c1.8,0.9,2.4-1.3,3.1-2c1-1,2.9-1.3,4.1-0.7c-1.8,1.1-1.7,3.2-2.9,4.5c-0.7,0.8-2.3,1.3-3.2,2.1
			c-0.9,0.7-1.6,1.5-2.5,2.1c-0.8,0.5-1.9,0.8-2.5,1.6c-0.6,0.8-0.9,2-1.4,2.8c-0.7,1.2-1.2,1.7-1,3.4c0.2,1.2,0.5,3.3,1,4.4
			c1.7,3.5,2.5-0.8,3.4-2.3c0.8-1.5,2.6-1,3.7-2.1c0.6-0.6,1.4-2.4,1.9-3.2c1.5-2.7-1-4.1,0.1-6.4c1.6-3.4,3.1-0.9,5.7-1
			c2.6-0.1,4.6-2.5,7-3.2c2.4-0.7,4-1.7,6.4-1.6c2,0.1,4.2,0.8,4.7-1.6C521.3,127.5,520.9,126.8,520.1,126.1z"/>
		<path class="st0" d="M422.7,228.1c0.6-0.1,1.1-0.4,1.7-0.4c0.3,0,0.6,0.2,1,0.2c0.9,0,1.4-0.6,1.9-1.3c0.2-0.3,0.3-0.6,0.4-1
			c0.1-0.3,0.2-1,0.4-1.2c0.5-0.5,1.8,0,2.4-0.3c0.7-0.3,1.1-1.1,1.8-1.4c0.6-0.2,1.4,0.2,1.6-0.7c0.1-0.8-0.6-0.6-1.3-0.8
			c-0.8-0.2-0.5-0.2-0.8-0.9c-0.2-0.5-0.3-0.7-0.7-0.9H431c-0.5,0.3-1,0.1-1.5,0.7c-0.6,0.8-0.4,1.4-1.3,1.9c-0.4,0.3-1,0.4-1.3,0.8
			c-0.2,0.2-0.2,0.5-0.5,0.7c-0.4,0.2-0.8,0.2-1.2,0.5c-0.4,0.3-0.7,0.7-1.1,1c-0.5,0.3-1.1,0-1.6,0.3c-0.5,0.3-0.4,1.1-0.8,1.5
			c-0.3,0.3-1.1,0.1-1,0.9C420.8,228.4,422.2,228.2,422.7,228.1z"/>
		<path class="st0" d="M438,194.9c0.2-0.8-0.2-1.2-1-1.1h-0.1c-0.6,0.6-1.3,1.9-1.3,2.8c0,0.4-0.1,1.2,0.1,1.6
			c0.3,0.9,1.1,0.4,1.5-0.3c0.3-0.5,0-1.1,0.1-1.7C437.4,195.7,437.9,195.4,438,194.9z"/>
		<path class="st0" d="M434.6,207.2c0.1,0.4,0.7,0.4,0.9,0.7c0.2,0.3,0,0.6,0.2,0.9c0.1,0.3,0.5,0.4,0.6,0.6
			c0.2,0.4,0.1,0.9,0.2,1.4c0.1,0.5,0.3,1.2,0.9,1.1c0.5-0.1,0.7-0.8,1.1-1c0.2-0.1,0.9-0.2,1.1-0.1c0.7,0.1,0.9,1.1,1.6,1
			c0.4-0.8-0.2-1.4-0.9-1.7c-0.3-0.2-0.9-0.2-1.2-0.5c-0.3-0.3-0.4-0.7-0.7-1c-0.4-0.4-0.8-0.6-0.8-1.2c0-0.8,1-0.9,1.2-1.8
			c0.1-0.4,0-0.5-0.2-0.8c0,0-0.3-0.1-0.3-0.2c-0.1-0.2-0.1-0.4-0.1-0.6c-0.2-0.4-0.3-0.6-0.7-0.8c-0.6-0.5-1.1,0-1.7-0.3v0.1
			c0,0.4,0.1,1.1,0,1.5c-0.2,0.5-0.6,0.9-0.8,1.5C434.9,206.2,434.5,206.8,434.6,207.2z"/>
		<path class="st0" d="M443.9,216.6c-0.3-0.1-1.3-0.2-1.6-0.1c-0.5,0.2-0.7,1.5-1.6,0.8c-0.5-0.4-0.4-1.9-0.3-2.4
			c-0.6,0-0.2-0.7-0.3-1.1c-0.1-0.4-0.4-0.5-0.8-0.7c-0.5-0.2-1.2-0.3-1.5,0.1c0,0.8,0.5,1,0.7,1.6c0.1,0.3-0.1,0.8,0,1
			c0.1,0.2,0.6,0.4,0.7,0.7c0.5,1-0.4,1.3-0.9,1.9c-0.3,0.4-0.5,0.7,0.1,1c1,0.5,1.4-1.1,2.2-0.9c0.7,0.1,0.7,1.4,1,1.9
			c0.2,0.3,1.1,1,1.5,0.9c0.6,0,0.7-0.9,0.7-1.4c1,0.1,1-1.5,0.9-2.1C444.6,217.3,444.5,216.8,443.9,216.6z"/>
		<path class="st0" d="M437.7,213.5c0,0,0-0.1,0.1-0.1c0,0,0,0,0,0L437.7,213.5z"/>
		<path class="st0" d="M431.4,244.5c0-0.2-0.2-0.4-0.1-0.6c0.1-0.3,0.4-0.5,0.4-0.9c0-1.5-2.2-1.1-2.9-2c-0.6-0.7-0.4-1.8-0.9-2.5
			c-0.4-0.7-1.2-0.6-1.9-0.9c-1.3-0.5-1.5-1.2-2.1-2.4c-0.5-1-1.5-0.8-2.2-1.4c-0.3-0.3-0.3-0.7-0.5-1c-0.2-0.3-0.5-0.4-0.9-0.6
			c-0.9-0.4-2-0.4-2.8-0.8h-1.2c0.3,0.8-0.1,1.1,0.7,1.4c0.5,0.2,0.8,0.2,1.1,0.8c0.2,0.4,0.2,0.8,0.6,1.2c0.8,0.7,2,1.2,2.8,1.9
			c0.6,0.6,0.7,2.2,0.9,3.1c0.1,0.3,0.1,0.7,0.3,1c0.2,0.2,0.4,0.2,0.7,0.4c0.6,0.5,1,1.3,1.4,1.9c0.9,1.2,2.5,1.8,3.4,3
			c0.4,0.5,0.5,1.1,1.1,1.4c0.8,0.4,1.8-0.3,2-1C431.5,246.1,431.5,245.1,431.4,244.5z"/>
		<path class="st0" d="M444.5,251.5c0.2,0.1,0.3,0.4,0.7,0.5c0.3,0.1,0.8,0.1,1.1,0.1c0.4,0,0.8,0,1.2,0c0.7,0,2.1-0.2,2.7,0.2
			c0.3,0.2,0.3,0.8,0.6,1.1c0.2,0.1,1.5,0.4,1.8,0.3c0.8-0.5-0.2-1.1-0.1-1.4c0.2-0.5,1.5-0.5,2-0.7c0.5-0.2,0.9-0.6,1.3-0.9
			c0.3-0.2,0.7-0.1,0.3-0.5c-0.7-0.7-3.5-0.1-4.4,0c-0.8,0.1-1.3,0.3-2.1,0.5c-1.5,0.4-3.6,0-5-0.5c-0.9-0.4-2.2-0.3-3-0.7
			c-0.3-0.1-0.4-0.4-0.6-0.5c-0.3-0.1-0.6-0.1-0.9-0.1c-0.5-0.1-0.6-0.3-1.1-0.5c-1-0.4-2.1,0-3.1-0.3c-1-0.4-2.4-1.3-3.4-0.9
			l0.1,0.3c-0.9-0.9-1.6,0.8-1.1,1.5c1,1.3,3.8,0.1,5.1,0.3c0.9,0.1,1.6,1.2,2.5,1.4c0.8,0.3,1.4,0.3,2.1,0.4
			c0.7,0.1,1.2,0.4,1.9,0.4C443.6,251.5,444.1,251.3,444.5,251.5z"/>
		<path class="st0" d="M448.3,234c-0.1-0.5-0.9-0.7-1.5-0.7c-1.2-0.1-1.7,1.2-1.9,2.2c-0.2,0.9-0.4,1.5-1.4,1.6
			c-0.3,0-0.6-0.1-0.9,0c-0.4,0.1-0.5,0.3-0.9,0.4c-0.5,0.2-1-0.2-1.5,0c-0.3,0.1-0.3,0.4-0.8,0.4c-0.5,0-1.1-0.2-1.5-0.5l-0.1,0.3
			c-0.6-1.6-2.3-0.3-2.3,1c0,1,0.9,1,1.1,2c0.1,0.4,0,0.6,0.1,1c0.2,0.4,0.7,0.7,0.8,1.2c0.1,0.2-0.1,0.6,0,0.8
			c0.3,0.5,1.3,0.3,1.7,0.3c0.6,0,1.5-0.2,2.2-0.1c0.5,0.1,1,0.4,1.4,0.6c1.3,0.5,2.9,1,3.6-0.8c0.2-0.5,0-1.3,0.2-1.7
			c0.2-0.4,0.9-0.4,1.3-0.7c0.5-0.5,0.2-1.1,0.4-1.7c0.3-0.9,0.7-0.5,1.3-0.8c1.3-0.8-1.2-2.7-1.4-3.4
			C448.2,234.8,448.4,234.2,448.3,234z"/>
		<path class="st0" d="M454.8,240.4c0.6-0.3,1.4-0.9,2-1.1c0.6-0.2,1,0.1,1.5-0.2c0.3-0.2,0.6-0.8,0.5-1.2c0-0.2-0.1-0.3-0.2-0.5
			c-0.7,0-1.4,0.6-2.2,0.5c-0.3,0-0.4-0.3-0.7-0.3c-0.6,0-0.7,0.4-1.2,0.5c-0.6,0.1-1.1-0.7-1.6-0.3c-0.4,0.3-0.6,1.2-1,1.6
			c-0.4,0.5-0.7,1-0.8,1.7c-0.1,0.6-0.5,1-0.6,1.7c-0.1,0.7,0.2,0.6,0.5,1.2c0.2,0.3,0.1,0.7,0.1,1.1c0,0.7-0.1,1.5,0.5,1.9
			c0.3,0.2,0.1,0.4,0.5,0.1c0.5-0.3,0.4-1.8,0.4-2.3c0-0.4-0.3-1,0.2-1.2c0.6-0.3,1,0.5,1.2,0.9c0.2,0.4,0.1,0.8,0.6,0.8
			c0.5,0,0.6-0.5,0.7-0.9c0-0.4-0.1-1.1-0.3-1.4c-0.3-0.5-0.8-0.3-1.1-0.7C453.3,241.4,454.2,240.7,454.8,240.4z"/>
		<path class="st0" d="M458.6,237.4C458.6,237.4,458.6,237.4,458.6,237.4c0,0,0.1,0,0.1,0H458.6z"/>
		<path class="st0" d="M462.9,239.7c0.2,0.6,1,1.7,1.7,0.9c0.5-0.6-0.6-1.1-0.5-1.7c0.1-0.4,0.8-0.5,0.7-1.1c-0.1-0.7-1.5-1.3-2-0.7
			h0.1C462.7,237.9,462.6,238.9,462.9,239.7z"/>
		<path class="st0" d="M459.3,252.9c0.7-0.4,1.7,0.1,2.4-0.4c1.1-0.8,0.1-1.6-0.8-1.7h0.3c-0.6,0-1.5-0.2-2,0.2
			c-0.3,0.2-0.2,0.4-0.3,0.6c-0.1,0.1-0.3,0.2-0.4,0.3c-0.7,0.8-1.1,1.3-0.9,2.3C458.3,254.5,458.7,253.2,459.3,252.9z"/>
		<path class="st0" d="M465.1,243.1c-0.8-0.1-1.1-0.6-2-0.1c-0.3,0.2-0.7,0.4-1.1,0.6c-0.2,0.1-0.4,0-0.6,0.3c0,0.1-0.1,1,0,1.1
			c0.5,0.6,2-0.3,2.7-0.3c0.9,0.1,1.1,0.8,2.2,0.6c1.1-0.2,1.3-0.9,0.8-1.9l0.5,0.1C467.2,242.7,465.8,243.2,465.1,243.1z"/>
		<path class="st0" d="M492.7,250.1c-0.4-0.5-0.6-0.7-0.7-1.4c-0.2-1-0.8-0.9-1.7-1.3c-0.5-0.2-0.7-0.5-0.9-0.9
			c-0.5-1-1.5-1.9-2.6-2.2c-0.9-0.2-1.6-0.5-2.5-0.7c-1.1-0.2-1.5-1.3-2.6-1.5c-0.2,0.6-1,0.2-1.5,0c-0.9-0.3-1.4-0.6-2.3-0.5
			c-1.3,0-2,0.4-3,1.1c-0.5,0.3-1,0.6-1.5,0.2c-0.7-0.6-0.2-1.8-0.9-2.5c-0.5-0.6-1.5-0.8-2.3-0.7c-1,0.1-0.9,0.7-1.5,1.1l-0.1-0.1
			c-0.1,1.1,0.6,1.8,1.1,2.7c0.2,0.3,0.5,1.2,0.8,1.5c0.4,0.3,1.5,0.2,1.9,0.2c0.5,0,1.1-0.1,1.6,0c0.6,0.1,1.6,0.1,2.1,0.3
			c0.4,0.2,1.8,1.4,2,1.9c0.2,0.4,0.1,0.8,0.3,1.3c0.2,0.4,1,0.7,0.8,1.3c-0.1,0.3-2.1,1.5-0.6,1.5c0.2,0,0.7-0.3,1-0.4
			c0.3,0,0.9-0.2,1.1,0c0.4,0.2,0.1,0.8,0.5,1c0.4,0.3,1.4,0,1.9,0.1c0,0.1,0,0.2,0,0.2c0.6,0.1,1.7-0.3,2.2-0.6
			c0.6-0.4,0.6-1.2,1.1-1.5c1.2-0.7,1.8,0.9,2.7,1.3c0.8,0.4,1.6,0.4,2.5,0.5c0.2,0.8,0.6,1.6,1.3,2c0.8,0.4,2.1,0.2,2.9,0.1
			c0,0.1,0.1,0.2,0.1,0.3c0,0,0.2,0,0.2,0c0.4-1-1.1-1.5-1.6-2.1c-0.1-0.1-0.1-0.3-0.2-0.5c-0.3-0.2-0.6-0.2-0.9-0.4
			C493.1,251,493,250.5,492.7,250.1z"/>
		<path class="st0" d="M496,246.6c0,0,0.1,0,0.1,0c0,0,0.1,0,0.1,0H496z"/>
		<path class="st0" d="M493.9,247.8c0.5,0.4,1.7,0.2,2.4,0.1c0.7,0,1.2,0,1.7-0.5c0.4-0.4,2.2-1.6,1-2.2c-0.8-0.4-1.1,0.8-1.6,1.1
			c-0.3,0.2-0.8,0.2-1.2,0.2C495.5,246.6,492.4,246.8,493.9,247.8z"/>
		<path class="st0" d="M500.7,276.4c-0.1-0.6-0.5-0.5-0.8-0.9c-0.3-0.3-0.3-0.7-0.5-1.1c-0.2-0.3-0.7-0.3-0.9-0.6
			c-0.3-0.4,0.1-1.1-0.1-1.4c-0.3-0.7-1.5-0.1-1.9-1.1c-0.4-0.8-0.1-1.7-0.7-2.4c-0.7-0.9-1.9-0.7-2.9-1.2c-0.9-0.4-1-1-1.4-1.8
			c-0.3-0.6-0.5-1.1-0.8-1.7c-0.3-0.7-0.3-1.2-0.3-2c-0.9-0.4-1-0.1-1-1.2c0-1.1,0.2-1.3-0.8-1.6c-0.5-0.2-1.5-0.4-1.9-0.9
			c-0.7-0.9,0.4-2.5-0.5-3.1c-0.3-0.2-0.6-0.1-0.8-0.2c-0.1,0-0.2-0.3-0.2-0.3c-1.1-0.1-1.5,1.3-1.2,2.1c0.2,0.6,0.5,0.8,0.4,1.5
			c-0.1,0.6-0.2,0.7,0,1.3c0.3,1.2-0.6,2.1-1.4,2.8c-1.1,0.9-2.8,0.9-4.1,0.5c-1.3-0.4-1.3-1.8-2.2-2.5c-0.4-0.3-1-0.2-1.5-0.5
			c-0.7-0.4-0.7-0.7-0.3-1.3c0.6-0.8,2.2-1.5,1.9-2.7c-0.8-0.1-1.4-0.5-2.2-0.2c-0.8,0.2-1.2,0.7-2.1,0.7c-2,0-3.8-1.3-5.2,0.6
			c-0.3,0.4-0.5,0.7-0.6,1.2c-0.1,0.4,0.1,0.7-0.2,1c-0.2,0.3-0.8,0.3-1,0.4c-0.1,0.1-0.2,0.3-0.3,0.4c-1,0.4-1.6-0.4-2.2-1
			c-0.6-0.7-1.2-0.7-2.1-0.4c-1,0.4-0.9,1.3-1.6,2.1c-0.8,0.9-1.9,2.2-2.3,3.5c-1,0-0.7-1.5-1.7-1.5c-1,0-1.3,1.3-1.3,2
			c0,0.6,0,0.8-0.3,1.4c0,0.1-0.1,0.3-0.2,0.4c-0.2,0.2-0.3,0.1-0.5,0.1c-1.2,0.5-2.4,1-3.6,1.5c-1.1,0.5-2,1.2-3.2,1.6
			c-0.9,0.3-1.8,0.1-2.4,0.8c-0.6,0.6-0.9,1.4-1.3,2.1c-0.4,0.6-0.7,1.3-0.5,2c0.2,0.7,0.9,1,0.9,1.8c0,0.2,0.1,0.7,0,0.9
			c0,0.1-0.4,0.3-0.4,0.3c-0.1,0.8,1.2,1.4,1.4,2.1c0.2,0.7,0.3,1.4,0.6,2.1c0.4,0.8,0.3,1.3,0.5,2.2c0.2,0.8,0.7,1,0.7,1.9
			c0,0.8-0.4,1.6-0.3,2.3c0.2,1.3,1.9,2.2,3.1,2c1.1-0.2,1.8-0.8,2.7-1.2c0.6-0.3,1.3-0.1,1.8-0.3c0.5-0.2,0.9-0.6,1.5-0.7
			c0.8-0.2,1.7-0.4,2.5-0.4c0.8,0.1,0.5,0.3,1.1-0.5c0.7-0.9,1.9-0.8,2.9-1.4c0.6-0.4,1-0.9,1.8-1.1c1-0.3,2-0.1,3-0.2
			c1.1-0.2,2-0.6,3-0.3c0.3,0.1,0.4,0.2,0.8,0.2c0.3,0,0.6,0,0.8,0.1c0.6,0.4,0.6,0.9,1.4,1.2c0.3,0.1,0.8,0.1,1.1,0.2
			c0.3,0.2,0.2,0.3,0.4,0.7c0.2,0.5,0.6,1.8,1.1,2c1,0.3,1.3-1.2,1.8-1.7c0.3-0.2,1.4-0.6,1.7-0.3c0.5,0.5-0.8,1.5-0.9,2.1
			c0.6,0.4,1.5-0.2,2,0.1c0.5,0.4,0.1,1.2,0.7,1.6c0.8,0.5,1.4,0,1.8,0.9c0.3,0.7-0.1,1.3,0.1,2c0.2,1,1.9,1.5,2.8,1.6
			c0.2,0,0.5,0,0.7,0c0.7,0.1,1.4,0.8,1.9,0.3c0.5-0.4,0.4-1.1,1.3-0.6c0.6,0.3,0.4,0.3,0.8,0.9c0.2,0.4,0.5,0.6,0.9,0.6
			c1.2,0,1.9-1.1,2.9-1.3c1.5-0.4,2.6-1.6,3.2-3.1c0.6-1.7,1.5-3.4,2.5-4.9c0.5-0.7,0-0.4-0.1-1.1c-0.1-0.6,0.7-1.1,1.1-1.5
			c0.9-1,1-2.5,1-3.8c0-0.6-0.1-1.2,0-1.8C500.5,278,501,277.2,500.7,276.4z"/>
		<path class="st0" d="M492.8,299.7c-0.2-0.4,0.1-0.5-0.5-0.7c-0.7-0.3-1.4,0.2-2,0.2c-0.4,0-0.7-0.2-1.1-0.2l-0.1,0.1
			c-0.6-0.6-1.7-0.1-1.5,0.8c0.1,0.3,0.3,0.3,0.4,0.6c0.2,0.5,0,1.1,0.3,1.5c0.3,0.5,1.1,0.3,1.4,0.7c0.3,0.5,0,1,0.1,1.5
			c0.4,1.2,3,0.3,3.3-0.8c0.1-0.4,0-0.9,0.1-1.3c0.1-0.4,0.4-0.8,0.3-1.3C493.5,300.3,493.1,300.2,492.8,299.7z"/>
		<path class="st0" d="M529.5,299.1c-0.3-0.1-1.3-0.8-1.5-0.2l0.1-0.1c0.1,0.7-0.2,1.3-0.7,1.7c-0.3,0.3-0.7,0.4-1,0.7
			c-0.2,0.3-0.2,0.6-0.4,0.9c-0.4,0.6-1.2,0.7-1.7,1c-0.8,0.5-1,1.2-1.5,1.8c-0.4,0.6-1.3,0.5-1.8,1c-0.6,0.6-0.4,1.2-0.3,1.8
			c0.1,0.7-0.2,1.1,0.7,1.3c0.6,0.2,1.7,0.4,2.4,0.3c0.7-0.1,1-0.7,1.3-1.3c0.3-0.6,0.3-1.7,0.8-2.2c0.3-0.3,0.6-0.3,0.9-0.5
			c0.4-0.3,0.5-0.7,0.8-1c0.5-0.5,1.3-0.4,1.7-1.1c0.2-0.3,0.3-0.6,0.4-0.8c0.2-0.3,0.6-0.5,0.7-0.8c0.3-0.5,0.2-1.1,0-1.5
			C530.3,299.4,530.2,299.5,529.5,299.1z"/>
		<path class="st0" d="M537,294.7c-0.3-0.6-1.5-0.5-2.1-0.5c-0.9-0.1-0.9-0.4-1.3-1.1c-0.4-0.7-1-1.6-1.8-1.9
			c-0.3-0.2-0.6-0.2-0.9-0.4c-0.2-0.2-0.3-0.6-0.6-0.8c-1.3-1-2.9,0.6-1,1.3c0.8,0.3,1.1,1,1.8,1.5c0.4,0.3,0.9,0.4,1.2,0.7
			c-0.2,0.1-0.4,0.2-0.5,0.4c-0.3,0.6-0.9,1-1.2,1.6c-0.3,0.6,0,0.7,0.4,1.1c0.8,0.8,1.3,1.5,1.4,2.6c0,0.4-0.1,0.9,0.3,1.1
			c1.1,0.5,1.5-1.7,1.7-2.2c0.3-0.9,0.7-0.8,1.5-1.1C536.5,296.5,537.4,295.5,537,294.7z"/>
		<path class="st0" d="M531.7,293.9c0-0.1,0.1-0.2,0.2-0.2c0,0,0-0.1,0-0.1L531.7,293.9z"/>
		<path class="st0" d="M379.4,218.1c-0.4-0.2-0.3-0.3-0.4-0.7c-0.2-0.5-0.5-0.8-0.9-1.1c-0.2-0.2-1.2-0.6-1.3-0.2V216
			c0,0.3-0.2,0.6-0.2,0.9c0,0.4,0.1,0.4,0.2,0.7c0.1,0.6-0.3,1.3,0.2,1.7c0.3,0.2,0.6,0.2,0.8,0.5c0.2,0.3,0.3,0.6,0.6,0.8
			c1,0.5,3.6-0.6,2.6-1.8C380.7,218.4,380,218.5,379.4,218.1z"/>
		<path class="st0" d="M333.2,249.3c-0.1-0.6,0.2-1.1,0-1.7c-0.2-0.5-0.6-1.3-1.1-1.5l0,0.1c-0.6-0.3-0.9,1.5-1.1,1.8
			c-0.3,0.5-0.8,0.8-1.3,1.1c-0.4,0.2-1.3,0.4-1.6,0.9c-0.3,0.5,0,0.9-0.8,1.1c-0.7,0.2-1.3,0.1-1.9,0.6c-0.4,0.4-1.2,1.2-1.3,1.8
			c-0.2,0.6,0.2,1.3,0.5,1.7c0.4,0.5,1.5,1.2,1.3,1.9c-0.1,0.3-0.9,1-1.2,1.2c-0.2,0.2-0.5,0.2-0.7,0.4c-0.9,0.7-0.1,1.5,0.3,2.2
			c0.3,0.5,0.4,0.9,0.3,1.4c0,0.3-0.2,0.6-0.2,0.9c0.2,0.8,1.3,1.7,2,1.8c1.2,0.3,2-1,2.6-1.8c1.3-1.9,0.7-3.9,0.9-5.9
			c0.1-0.7,0.4-0.8,0.9-1.2c0.5-0.5,0.8-1,1.2-1.5c0.6-0.9,0.9-2,1.2-3c0.1-0.4,0.3-0.9,0.3-1.3
			C333.5,249.8,333.3,249.6,333.2,249.3z"/>
		<path class="st0" d="M463.2,172.8c-0.3,0.3-0.5,0.4-0.6,0.8c-0.1,0.4,0,0.7-0.3,1c-0.3,0.4-0.7,0.7-1.1,1
			c-0.5,0.4-1.1,0.5-1.5-0.2c-0.2-0.4,0-0.7-0.6-0.4c-0.8,0.4-0.5,1.4-0.7,2.1c-0.2,0.7-0.8,0.6-1.4,0.6c-0.3,0-0.6-0.1-0.8,0
			c-0.3,0.1-0.5,0.4-0.8,0.5c-0.5,0.2-1,0-1.5,0.1c-0.7,0.2-0.8,0.9-1.2,1.4c-0.4,0.4-1,0.4-1.5,0.6c-0.3,0.2-0.6,0.4-0.8,0.6
			c-0.2,0.2-0.3,0.5-0.4,0.7c-0.3,0.4-0.9,0.4-0.7,1.2c0.1,0.3,0.3,0.5,0.4,0.8c0,0.2-0.1,0.5,0,0.7c0.6,1.3,2.2-0.1,2.3-1
			c0-0.3-0.2-0.6-0.1-0.9c0.2-0.5,0.7-0.8,1.2-0.8c0.3,0,0.6,0.2,0.9,0.2c0.3,0,0.5-0.2,0.8-0.3c0.5-0.2,1-0.4,1.5-0.6
			c0.3-0.1,0.8-0.6,1.1-0.6c0.2,0,0.2,0.1,0.4,0.2c0.8,0.3,1.4-0.1,2.2-0.6c0.4-0.2,0.8-0.5,1.2-0.6c0.4-0.1,0.7-0.1,1-0.1
			c0.6,0,1.2-0.2,1.6-0.7c0.4-0.5,0.5-1.1,0.9-1.6c0.3-0.4,0.6-0.7,0.8-1.1c0.3-0.5,0.4-1.1,0.7-1.7c0.3-0.7,0.4-1.3,0.4-2.1
			c0-0.5,0.2-0.7,0.3-1.2c0-0.4,0-1-0.2-1.3c-0.3-0.4-0.8-0.2-1-0.7c-0.1-0.4,0-0.8,0.3-1.1c0.5-0.6,1.1-0.6,1.7-0.1
			c0.4,0.3,0.4,0.7,1,0.5c0.8-0.3,1-1.4,1.8-1.7c0.7-0.3,1.1-0.1,1.1-1.1c0-0.4,0-0.5-0.4-0.7c-0.6-0.3-1.7,0-2-0.5
			c-0.2-0.2-0.2-0.5-0.5-0.8c-0.3-0.3-0.6-0.3-0.9-0.6c-0.3-0.2-0.4-0.7-0.8-0.7c-0.4,0-0.9,0.6-1,0.9c-0.2,0.4,0,0.9-0.2,1.4
			c-0.2,0.5-0.8,0.6-1.1,1c-0.7,0.8-0.2,1.4,0,2.2c0.1,0.5-0.3,1.1-0.4,1.6c-0.1,0.2,0,0.4-0.2,0.5c-0.4,0.3-0.3,1.4-0.3,1.8
			C463.7,172.1,463.6,172.5,463.2,172.8z"/>
		<path class="st0" d="M464,169.8c0,0,0.1,0,0.1,0c0,0,0,0,0,0L464,169.8z"/>
		<path class="st0" d="M466.9,150c0.1,0.3,0.3,0.7,0.3,1.1c0,0.5-0.3,0.8-0.4,1.3c-0.2,1,0.2,1.7,0.2,2.7c0,0.4-0.1,0.8-0.1,1.2
			c0,0.3,0.1,0.5,0.2,0.8c0.1,0.9-0.7,1.6,0.3,2.3c0.3,0.2,1.1,0.6,1.4,0.2c0.2-0.3-0.1-0.8-0.3-1.1c-0.3-0.4-0.4-0.6-0.4-1.2
			c0-0.3,0-0.6,0.3-0.7c0.3-0.2,0.5,0,0.8-0.1c0.3-0.1,0.2,0,0.4-0.3c0.2-0.3,0.3-1,0.2-1.4c-0.2-0.6-1.1-0.9-1.2-1.6
			c-0.1-0.8,0.7-1.2,0.9-1.9c0.1-0.8-0.1-1.6-0.3-2.3c-0.1-0.5-0.2-1.3-0.8-1.4c-0.4-0.1-1,0.3-1.2,0.5l0-0.1
			C466.5,147.9,466.8,149.7,466.9,150z"/>
		<path class="st0" d="M277.7,88.5c0.2,0.2,0.6,0.2,0.9,0.4c0.2,0.2,0.1,0.6,0.3,0.8c0.2,0.2,1.3,0.1,1.5,0.1c0.9-0.2,1-1,1.7-1
			c0.5,0,2.9,0.4,1.8,1.2c-0.5,0.4-2.8-0.3-2.6,0.9c0.1,0.3,0.5,0.5,0.6,0.8c0.1,0.3,0,0.6,0.1,0.9c0.1,0.4,0.5,0.7,0.8,1
			c0.4,0.3,1,1,1.5,0.7c0.4-0.3,0.7-0.9,1.1-1.3c0.5-0.4,1-0.8,1.4-1.3c0.4-0.5,0.7-1.1,1.3-1.3c0.6-0.2,1-0.1,1.4-0.5
			c0.3-0.3,0.8-0.9,0.9-1.3c0.1-0.4-0.1-0.4-0.6-0.5c-0.6-0.1-1-0.3-1.2-0.9c-0.2-0.6,0.3-0.7,0.9-0.8c0.4-0.1,1.6-0.2,1.9,0.1
			c0.4,0.4,0,0.7,0.6,0.7c0.5,0,0.8-0.3,1.3-0.2c0.4,0.1,0.4,0.2,0.8,0.2c0.4,0,0.8,0,1.2-0.1c0.6-0.2,1.3-0.4,2-0.5
			c0.8-0.1,1.1-0.1,1.6-0.9c0.4-0.6,0.1-1.1-0.4-1.6c-0.4-0.4-0.7-0.8-1.3-0.8c-0.9-0.1-1.8,0.3-2.7,0.2c-0.2,0-0.3-0.1-0.5-0.2
			c-0.5-0.1-1.1,0-1.6,0c-0.7,0-1.3,0-2,0c-0.7-0.1-1.6-0.2-2.3,0.2c-0.5,0.3-0.8,0.9-0.8,1.4c0,0.5,0.2,0.9-0.3,1.3
			c-0.2,0.1-0.4,0.1-0.5,0.3c0-0.6,0.3-1.3-0.5-1.5c-0.3-0.1-0.8,0.1-1.1,0c-0.3-0.1-0.2-0.3-0.6-0.4c-0.7-0.1-0.9,0.6-0.7,1.1
			c0.1,0.1,0.3,0.3,0.3,0.5c-0.1,0.2-0.7,0.3-0.9,0.2c-0.5-0.2-0.3-1.2-0.7-1.4c-0.8-0.4-0.9,0.8-1.4,1c-0.8,0.4-0.9-0.8-1.3-1.2
			c-0.5-0.4-1,0.2-1.6,0.2c-0.4,0-0.7-0.1-0.9,0.2c-0.3,0.3-0.2,0.8-0.1,1.2C277.3,87.1,277.4,88.1,277.7,88.5z"/>
		<path class="st0" d="M336.9,107.7c0.1,0.3-0.3,0.6-0.2,0.9c0.2,0.5,1.6,0.5,2,0.5c0.6,0,1.4-0.2,1.5,0.6c0,0.4-0.2,0.6,0.2,0.8
			c0.4,0.2,1.2,0.2,1.6,0c0.7-0.3,0.8-1,0.7-1.7c-0.1-0.7-0.3-1.2-0.7-1.7c-0.3-0.5-0.4-0.7,0-1.2c0.6-0.8,1.4-1.6,2-2.4
			c0.3-0.4,0.4-0.9,0.6-1.4c0.2-0.6,0.7-1.1,1.2-1.4c1-0.8,2.2-1.4,3.3-2.1c0.6-0.3,1.2-0.7,1.8-0.9c0.7-0.2,1.5,0,2.2-0.1
			c2-0.2,3.7-1.1,5.6-1.6c0.5-0.2,1.3-0.2,1.6-0.6c0.7-0.7-0.4-1.4-1-1.6c-1.6-0.6-2.3,0.7-3.4,1.4c-0.4,0.2-0.7,0.3-1.1,0.3
			c-1.4,0.1-2.7-0.1-4.1,0.1c-1.3,0.2-2.7,0.6-3.9,1.2c-0.8,0.4-1.4,0.8-2,1.6c-0.8,1.1-1.7,1.6-2.9,2.2c-0.7,0.4-1.2,0.8-1.7,1.4
			c-0.4,0.4-0.2,0.6-0.3,1.1c0,0.3-0.2,0.8-0.6,0.9l0.2-0.2c-0.3-0.3-0.7,0-1,0.1c-0.6,0.3-1,0.5-1.1,1c-0.1,0.4,0,0.5-0.4,0.8
			c-0.2,0.3-0.4,0.5-0.6,0.8c-0.1,0.2-0.3,0.4-0.2,0.7C336.3,107.5,336.8,107.4,336.9,107.7z"/>
		<path class="st0" d="M246.6,149.2c0.3,0.5-0.2,0.9-0.2,1.4c1.4,0.4,2.6-0.1,3.7-1c0.4-0.3,0.9-0.7,1.1-1.2c0.2-0.3,0.3-0.7,0.5-1
			c0.2-0.5,0.2-0.3-0.1-0.7c-0.2-0.2-0.3-0.1-0.3-0.4c0-0.2,0.3-0.4,0.4-0.7c0.1-0.3,0-0.7-0.2-1c-0.2-0.4-0.4-0.8-1-0.7l0.3,0
			c-0.7,0-1.5,0.2-2.2,0.4c-0.8,0.2-0.4,0.4-0.7,1c-0.1,0.3-0.3,0.4-0.7,0.4c-0.6-0.1-0.6-0.6-1.1,0c-0.5,0.5-0.4,0.9-0.3,1.5
			c0.1,0.4-0.1,0.6-0.2,1C245.7,148.9,246.4,148.8,246.6,149.2z"/>
		<path class="st0" d="M254.1,143.8c0.4,0.3,0.4,0.4,0.5,0.9c0.2,0.7,0.8,1,1.1,1.6c0.2,0.4,0.2,0.8,0.2,1.3
			c-0.1,0.6-0.4,0.8-0.8,1.1c-0.4,0.4-0.7,0.7-0.7,1.4c0,0.3,0.1,0.7,0,1c-0.2,0.5-0.9,0.7-1.1,1.3c-0.4,1.4,2.6,0.6,3.1,0.5
			c0.7-0.1,1.1-0.7,1.9-0.9c0.3-0.1,0.6,0,0.9-0.1c0.7-0.2,1.5-0.6,2.1-1c0.5-0.3,1.1-0.5,1.2-1.1c0.2-0.6-0.2-1.1-0.7-1.4
			c-0.7-0.4-1.7-0.2-1.8-1.2c0-0.3,0-0.6,0-0.9c-0.1-0.8-0.7-1.1-1.4-1.3c-1.1-0.4-2.4-1.8-1.8-3.1c0.2-0.6,1-0.9,1-1.6
			c0-0.7-1.2-1.2-1.8-1.2c-0.3,0-1,0.3-1.1,0c-0.3-0.6,0.9-0.6,1.1-0.8c0.5-0.4-0.3-1-0.7-0.9c0,0.1-0.1,0.1-0.1,0.2
			c-0.7,0-1.4,0.2-1.6,0.9c-0.1,0.3,0,0.5-0.2,0.8c-0.2,0.4-0.8,0.6-1,1c-0.5,0.9,0.5,2.2,1.1,2.9
			C253.7,143.5,253.9,143.6,254.1,143.8z"/>
		<path class="st0" d="M273.4,166.7C273.4,166.7,273.4,166.7,273.4,166.7C273.4,166.7,273.4,166.7,273.4,166.7L273.4,166.7z"/>
		<path class="st0" d="M272.5,169.2c-0.2,0.5,0,0.5,0.2,0.9c0.4,0.6-0.3,1.3,0.1,1.9c0.3,0.5,1.2,0.6,1.6,0.3c0.6-0.4,1-1.2,0.7-1.9
			c-0.2-0.4-0.4-0.6-0.5-1c-0.1-0.4,0-0.8,0-1.2c0-0.5,0.1-1-0.5-1.3c-0.3-0.1-0.5-0.1-0.8-0.2c0,0,0,0,0-0.1
			c-0.3-0.1-0.6,1.1-0.5,1.3c0,0.1,0.1,0.2,0.1,0.4C272.9,168.7,272.6,169,272.5,169.2z"/>
		<path class="st0" d="M280.4,175.4c0.2,0.1,0.2,0.3,0.2,0.4c0.2,0.5,0.3,0.6,0.9,0.5c0.5-0.1,0.8-0.5,0.8-1c0-0.5-0.3-0.7-0.5-1.1
			c-0.1-0.4-0.3-0.4-0.8-0.4c-0.1,0-0.3,0-0.4,0h0c-0.3-0.3-1.7,0.1-2,0.4c-0.3,0.5,0.1,0.9,0.6,1.1
			C279.6,175.5,280.1,175.3,280.4,175.4z"/>
	</g>
	<g>
		<path class="st0" d="M129.6,91.7L129.6,91.7L129.6,91.7C129.6,91.6,129.6,91.7,129.6,91.7z"/>
		<path class="st0" d="M129.6,91.6C129.7,91.6,129.7,91.6,129.6,91.6C129.7,91.6,129.7,91.6,129.6,91.6z"/>
		<path class="st0" d="M122.3,99.3C122.3,99.3,122.3,99.3,122.3,99.3c0,0-0.1,0-0.1,0.1C122.3,99.3,122.3,99.3,122.3,99.3z"/>
		<path class="st0" d="M112.7,93.4c0,0,0-0.1,0-0.1l-0.1-0.2C112.7,93.2,112.7,93.3,112.7,93.4z"/>
		<path class="st0" d="M122.2,99.3C122.2,99.4,122.2,99.4,122.2,99.3l-0.1,0.1C122.1,99.4,122.2,99.4,122.2,99.3z"/>
		<path class="st0" d="M112.7,93.4L112.7,93.4C112.7,93.4,112.7,93.4,112.7,93.4C112.7,93.4,112.7,93.4,112.7,93.4z"/>
		<path class="st0" d="M223.6,98.4c0.5-0.4,1-0.6,1.5-1c0.7-0.6,0.9-1.4,1.2-2.3c0.5-1.8-1.7-1.2-2.8-0.8c-0.3,0.1-1,0.6-1.3,0.4
			c-0.3-0.2-0.3-1.2-0.1-1.5c0.7-0.9,3.1,0.4,3.1-1.1c0.1-1.8-3.6-1.7-4.6-1.8c-0.4-1.4-3.8-2.1-0.8-3.1c0.7-0.2,1.5-0.6,1.1-1.6
			c-0.1-0.3-0.7-0.4-0.9-0.8c-0.7-1.4,1.2-2.4-0.9-3.2c-0.4-0.1-0.8-0.3-1.2-0.5c-0.6-0.3-0.8-0.7-1.2-0.9c-0.6-0.4-2-0.1-2.5-0.8
			c-0.9-1.4,1.4-1.5,1.5-2.4c-0.8-0.3-1.8-0.1-2.6-0.4c-0.8-0.4-1-1.2-1.5-1.9c-0.5-0.8-1.4-0.8-1.9-1.7c-0.5-0.9-0.1-1.8-0.4-2.7
			c-0.3-0.8-1.2-0.5-1.5-1.3c-0.3-0.7,0.4-1.6,0.3-2.2c-0.2-0.6-1.1-0.6-1.8-0.4c-1,0.3-0.4,1-1,1.7c-0.4,0.5-1.7,0.5-2.4,0.4
			c-1.4-0.3-0.5-1.1-1.2-1.8c-0.7-0.7-3.6-0.2-4.5-0.2c-0.8,0-1.5-0.4-2.3-0.4c-0.9,0-1.5,0.6-2,1.2c-0.2,0.2-0.1,0.5-0.3,0.7
			c-0.5,0.4-1.2,0.2-1.6,0.5c-0.7,0.4-0.4,1.3-0.9,1.9c-0.6,0.7-1.7,0.2-2.5,0.4c-1.3,0.5-0.9,1.9-2.4,0.8c-0.5-0.4-1.2-0.6-1.6-1
			c-1.7,0.8-3,1.9-4.5,3c-0.5,0.4-0.4,0.5-1.2,0.5c-1,0.1-1.5-0.1-2.3,0.7c-0.3,0.3-1,1-0.8,1.5c0.3,0.8,1.8,0.1,1.5,1.2
			c-0.3,0.8-2.1,1.3-2.8,1.4c-1,0.1-2-0.3-3,0.1c-0.4,0.2-0.8,0.5-1.3,0.6c-0.4,0.1-0.9,0-1.2,0.2c-1.2,0.9,0.6,1.8,1,2.6
			c0.6,1.2-0.5,0.7-1,1.6c-0.9,1.7,1.3,2.5,2.6,2.7c1.5,0.2,4-0.6,5.1,0.8c0.2,0.3,0.3,0.7,0.6,1c0.6,0.8,1.5,0.9,2.2,1.6
			c0.9,0.8,1.8,1.8,2.1,2.9c0.2,0.7,0.9,2.5,0.5,3.3c-0.3,0.7-1,0.7-0.9,1.7c0.1,0.6,0.3,1,0.9,1.1c0.5,0.1,0.8-0.4,1.2-0.6
			c0.8-0.3,1.1-0.1,1.8,0.3c0.9,0.5,3,2.2,2.8,3.4c-0.1,0.4-0.6,0.6-0.9,1c-0.3,0.6-0.2,1.2-0.1,1.8c0.1,0.7,0.5,1.1,0,1.6
			c-0.4,0.3-1.3,0.3-1.8,0.7c-0.8,0.7-0.5,1.4-0.4,2.3c0,0.7-0.5,1.4-0.4,2c0.1,0.4,0.5,0.9,0.7,1.3c0.4,0.9,0.7,2.4,1.5,3
			c0.5,0.4,0.5,0.3,0.8,0.7c0.2,0.4-0.3,0.7,0.4,0.8c0.2-0.5,1-2.2,1.8-1.4c1.2,1.1-1.9,2-2,2.8c-0.1,1,1.5,1.1,2.2,1.6
			c1.2,0.7,1.2,2,2.6,2.6c1.6,0.7,3.6,1.6,5.3,1.6c1.3,0,1.8,0.4,2.6,1.5c0.5,0.7,1.7,2.1,2.7,1.8c1.3-0.4,2-4.1,2.1-5.3
			c0.1-1.3-0.3-1.8,0.5-2.9c0.6-0.8,1.8-1.8,1.7-3c-0.1-0.9-1-1.9-0.6-2.9c0.4-1,1.9-1.8,2.7-2.6c0.8-0.8,0.9-1.9,2.1-2.1
			c1.4-0.3,1.9,0.1,3.1-1c1.4-1.2,2.5-2.2,2.9-3.9c0.4-1.5,2.2-1.6,3.4-2.3C221.5,100.8,222.4,99.4,223.6,98.4z"/>
		<path class="st0" d="M232.4,111.9c0.8-0.3,1.4-0.2,1.5-1.3c0.2-1.4-1-1.9-2.1-2.4c-0.7-0.3-1.5-0.6-2.3-0.2
			c-0.9,0.4-1.3,1.2-2.3,1.4c-0.2,0-1.1,0-1.4-0.1c-0.3-0.1-0.6-0.3-0.8-0.6c-0.4,0.2-0.8,0.8-1,1.2c-2,0.1-0.9-2.4-3.1-2.1
			c-0.7,0.1-1.7,0.6-2.2,1c-1,0.8-0.6,1.1,0.4,1.6c0.4,0.2,0.7,0.3,1,0.5c0.7,0.5,0.2,0.3,0.6,0.9c0.2,0.3,0.1,0.4,0.3,0.7
			c0.1,0.1,0.4,0,0.6,0.2c0.1,0.1,0,0.5,0.1,0.6c0.5,0.5,1.5,0.4,2.4,0.6c0.9,0.2,1.7,0.4,2.6,0.3c1-0.1,2.1-0.1,3-0.6
			C230.5,113,231.4,112.2,232.4,111.9z"/>
		<path class="st0" d="M135.4,76.9c0.4,0.6-0.1,1.6,1,1.6c0.7,0,1.4-0.8,2.3-1c0.7-0.1,1.3-0.3,1.9,0.1c0.7,0.7,0.4,1.4,1.7,1.3
			c0.9-0.1,1.7-0.6,2.6-0.6c0.6,0,1.3-0.1,1.9,0c0.8,0.1,1.8,0.6,2.6,0.4c0.3-0.1,0.5-0.5,0.9-0.5c1.1,1.7-2,0.9-2.5,2.2
			c-0.2,0.6,0.2,0.8,0.1,1.4c-0.2,1.3-1.4,0.2-1.9-0.4c-0.7-1.1-1.1-0.7-2.3-0.5c-0.7,0.1-1.7-0.1-2,0.6c-0.6,1.7,3.8,2.4,4.5,3.5
			c-1,0.6-2.2-0.2-3.2-0.2c-0.5,0-2.2,0.3-2.4,0.9c-0.5,1.3,2.4,1.4,3,1.9c0.4,0.4,0.3,1.1,0.3,1.7c-1.7,0.6-3.1-2.2-4.4-0.5
			c-0.5,0.6-1.5,1.6-1.6,2.2c-0.2,1.7,2.1,1.2,3.1,1.2c0.9,0,1.8-0.1,2.8-0.4c0.7-0.2,1.4-0.6,2.1-0.3c0.8,0.3,1.7,1.6,2.9,1.2
			c0.5-0.2,0.6-0.6,1.1-0.8c0.3-0.1,0.8-0.1,1.1-0.1c0.7-0.2,1.9-0.5,1.7-1.5c-1.1-0.4-2.3-0.2-3.5-0.3c-0.6-1.1,1.2-1.2,1.8-1.3
			c1.4-0.2,1.4-1.4,2.4-2.1c0.7-0.5,4.6-0.9,3-2.8c-0.4-0.5-1.9-0.2-1.9-0.8c-0.1-1,2.9-1.2,3.5-1.3c0.4,0,0.8,0.1,1.1-0.2
			c0.4-0.4,0-1,0.3-1.3c0.6-0.6,2,0.1,2.7,0c2-0.2,3.9-2,5.9-2.4c0.6-0.1,2.2-0.3,2.4-1c0.3-1.1-1.5-0.4-2-0.9
			c-0.9-1.1,2.8-1.7,3.6-1.7c0.8,0,3.3,0.4,3.2-1c-0.1-1-1.7-1.1-2.4-1.1c-0.6-0.1-0.9-0.3-1.5-0.4l0.1-0.1
			c-0.7,0.1-1.7-0.2-2.5-0.2c-1,0-1.9,0.3-2.8,0.2c-0.4,0-1.1,0-1.4-0.2c-0.4-0.2-0.3-0.6-0.6-0.7c-0.9-0.5-2-0.3-2.3,0.7
			c-0.7,0-1.6-0.4-2.2-0.3c-0.6,0.1-0.7,0.6-1.3,0.7c-1,0.1-2-1.5-3.1-0.9c-0.5,0.3-0.5,1.1-0.1,1.7c-0.9,0.1-1.1-0.3-1.8-0.5
			c-0.8-0.3-2.2-0.1-3,0c-0.5,0.1-1.4,0-1.8,0.5c-0.8,0.9,0.6,1.3,0.4,2.2c-0.4,1.8-3.1-0.7-3.8-1c-1.9-0.6-4,0.7-5.9,0.6
			c-0.7,0-1.2,0-1.9,0.2c-0.6,0.1-1.4-0.2-2,0c-0.4,0.1-0.8,0.4-0.8,0.9C134.3,76.7,135.1,76.4,135.4,76.9z"/>
		<path class="st0" d="M127.3,82.7c0.9,0.3,2.2-0.3,3.1,0c1,0.4,0.1,0.7-0.3,1c-0.4,0.3-0.9,1-0.5,1.5c0.2,0.3,1,0.2,1.3,0.3
			c0.6,0.3,0.5,0.7,0.9,1.1c1.8,1.7,4.2-0.4,5.6-1.4c0.4-0.3,0.7-0.7,1.2-0.8c0.3-0.1,0.8,0,1.1-0.1c0.6-0.2,1.1-0.9,0.6-1.6
			c-0.2-0.3-0.7-0.3-0.9-0.7c-0.1-0.2,0-0.6-0.1-0.7c-0.6-1-1.5-0.3-2.4-0.5c-0.9-0.2-2.6-0.9-3.3-1.7c-0.4-0.5-0.4-1.1-0.9-1.5
			c-0.3-0.3-0.9-0.5-1.3-0.5l0.1-0.4c-0.4,0.3-0.6,0.8-1.1,1.1c-1.1,0.7-1.4,0.2-2,1.5C127.9,80.3,125,81.9,127.3,82.7z"/>
		<path class="st0" d="M124.3,87.2c0.4,0.4,0,0.7,0.6,1.1c1.1,0.6,1.8-0.7,2.7-0.5c0.2-0.8,0-1.1-0.5-1.7h0.2c0-0.1,0.2,0,0.1-0.2
			c-0.5-0.3-1-0.1-1.5-0.2c-0.5-0.1-0.7-0.2-1.2-0.3c-0.7-0.2-1.7-0.1-1.4,1C123.4,86.9,124,86.7,124.3,87.2z"/>
		<path class="st0" d="M115.5,85.6c-0.5,0.1-1.9,0.3-1.7,1.1c0.1,0.5,2.7,0.3,3.1,0.2c0.3,0,0.8-0.3,1.1-0.2
			c0.3,0.1,0.2,0.4,0.5,0.6c0.4,0.3,1.4,0.5,1.9,0.4c1,0,1.6-1.1,0.7-1.9c-0.3-0.3-1.8-0.7-2.4-0.9l0.2-0.1c-0.1-0.2-0.6-0.3-1-0.3
			c-0.6-0.1-0.7-0.2-1.1-0.6c-0.6-0.5-1-1.2-2.1-1.1c-0.7,0-1.7,0.7-1.2,1.5C114,85.1,115.5,84.6,115.5,85.6z"/>
		<path class="st0" d="M129.6,91.6l0.1-0.1C129.8,91.5,129.8,91.5,129.6,91.6C129.7,91.6,129.7,91.6,129.6,91.6L129.6,91.6z"/>
		<path class="st0" d="M128.9,90.9c-0.7-0.1-1.7,0.5-2-0.3c-0.5-0.2-1.1-0.1-1.1,0.6c-0.1,0.9,1,1,1.6,1.3c0.6,0.2,1.1,0.6,1.7,0.2
			c0.3-0.2,0.3-0.7,0.6-1l0,0c0,0,0,0,0,0c0,0,0.1-0.1,0.1-0.1C130.1,91.1,129.3,90.9,128.9,90.9z"/>
		<path class="st0" d="M120.8,92.8c-0.7,0.3-1-0.7-1.7-0.6c-0.4,0.1-1.6,1.2-1.4,1.7c0.2,0.6,1.1,0.1,1.5,0.3
			c0.5,0.2,0.4,0.3,0.6,0.7c0.2,0.4,0.1,0.7,0.6,1.1c0.2,0.2,0.7,0.3,1,0.3c1.4,0.3,2.4,0,2.4-1.4c0.2-0.5,0.3-1.5,0.3-2.1
			c-1.3-0.2-0.1-1.8-1.9-1.4C121.3,91.5,121.6,92.5,120.8,92.8z"/>
		<path class="st0" d="M137.7,96.8c1,0,1.8,0.4,2.8,0.5c1.1,0.1,2.1,0,3.2,0.1c0.9,0.1,1.3,0.2,2.3-0.1c0.5-0.2,1-0.1,1.4-0.2
			c1.5-0.1,2.7,0.2,2.7-1.8c-1.8-0.5-3.1-1.2-5-1.2c-1.1,0-1.9,0.4-3,0.5c-0.9,0.1-1.5,0-2.2-0.2c-0.7-0.2-0.9-0.1-1.6,0.1
			c-0.7,0.2-1.2,0.4-1.8-0.1c-0.3-0.3-0.2-0.5-0.6-0.8c-0.3-0.2-0.6-0.2-0.9-0.2c-0.3,0.2-0.9,0.1-0.9-0.4c0-0.1,0.7-0.5,0.7-1
			c-0.7-0.5-2.9-0.9-3.5,0c-0.8,1.2,0.9,1.2,1.2,1.7c0.3,0.4-0.3,1.4-0.3,2c0.5,0.2,0.9,0.3,1.2,0.8c0.5,0.6,0,0.6,0.7,0.9
			C135.3,97.7,136.7,96.8,137.7,96.8z"/>
		<path class="st0" d="M135,93.4c-0.1,0-0.3,0-0.4,0.1L135,93.4z"/>
		<path class="st0" d="M135,93.4C135,93.4,135,93.4,135,93.4C135,93.4,135,93.4,135,93.4L135,93.4z"/>
		<path class="st0" d="M122.1,106.1c0.6,0.4,1.3,0.5,2,0.3c0.8-0.3,2.2-2.4,0.9-2.5c-0.2-1.2,0.7-1.5-0.8-2c-0.5-0.2-1,0-0.9-0.7
			c0.1-0.6,0.7-0.2,1-0.4c1.5-1.1-1.1-1.9-2-1.4c0,0,0,0,0,0c0,0-0.1,0-0.1,0.1c0,0-0.1,0.1-0.1,0.1l0-0.1c-0.9,0.3-2.3-0.5-2.3,0.7
			c0,1,0.9,1.1-0.2,1.9c-0.6-0.4-1.4-2.1-1.9-0.7c-0.8,2.2,3.1,1.8,3.8,2.9C122.1,105.3,121.2,105.4,122.1,106.1z"/>
		<path class="st0" d="M122.3,99.3c0-0.1,0-0.2-0.1-0.3l-0.1,0.4c0,0,0.1,0,0.1,0C122.3,99.3,122.3,99.3,122.3,99.3z"/>
		<path class="st0" d="M131.1,102.3c1-0.1,1.6,0.4,2.2-0.4c0.2-0.3,0.2-0.8,0.4-1.1c0.2-0.4,0.6-0.5,0.7-0.9c0.5-1.7-1.8-1.1-2.7-1
			c-0.9,0.1-1.2-0.1-1.9-0.2l0.6-0.3c-0.8,0.3-1.6,0-2.4,0.9c-0.5,0.6-0.5,1.2-0.4,1.9c0.1,0.6,0.1,0.8,0.4,1.3
			c0.1,0.1,0.3,0.3,0.4,0.4c0.1,0.2,0,0.7,0.1,0.9c0.2,0.3,0.6,0.7,1.2,0.4c0.7-0.4,0.2-1,0.5-1.4
			C130.2,102.3,130.7,102.3,131.1,102.3z"/>
		<path class="st0" d="M168.1,111.8c1-0.8,0.1-2.2-1.1-2.1c0-0.9-0.3-1.5-1.1-1.6c-0.4-0.1-0.9,0.2-1.3,0c-0.2-0.1-0.4-0.6-0.6-0.7
			c-0.2-0.2-0.5-0.2-0.7-0.3c-0.2-0.1-0.4-0.4-0.6-0.5c-0.6-0.2-0.6,0-1.1-0.1c-0.8-0.2-0.9-0.5-1.8-0.5c-0.7,0-1.8,0-2.2-0.8
			c-0.2-0.4,0.1-0.9-0.1-1.2c-0.3-0.5-1.5-0.5-2-0.6c-0.8-0.2-1.6-0.6-2.4-0.7c-0.1,0.4-0.9,2-1.2,2.1c-0.9,0.4-0.7-1.3-1.6-0.5
			c-0.9-0.5-0.3-1.4-0.5-2.2c-0.8,0-0.6-1.4-1.3-1.8c-1-0.5-2.8-0.8-3.8-0.2c-0.4,0.2-1,0.8-1.3,1.1c-0.1,0.2,0,0.5-0.1,0.7
			c-0.2,0.4-0.6,0.5-0.8,0.9c-0.8,1.4,1,3,0.3,4.2c-0.7,1.3-1.8-1.3-1.9-2.1c-0.1-0.4,0-0.7-0.2-1.1c-0.1-0.1-0.3-0.1-0.4-0.2
			c-0.2-0.4-0.5-0.9-0.2-1.4c0.5-0.8,1.4-0.5,1.7-1.5c0.2-0.6,0.2-1.2-0.5-1.3h-0.1c-1.6,0-3.7,0.8-4.4,2.6c-0.2,0.4,0,0.8-0.1,1.1
			c-0.2,0.6-0.5,0.8-0.5,1.5c0.1,0.8,0.6,1.1,0.5,2c1,0.3,2.6-0.2,2.8,1c-0.5-0.1-0.9,0.3-0.6,0.8c0.3,0.6,1.8,0.6,2.3,0.6
			c0.7,0,1.8-0.2,2.4,0c0.4,0.1,0.5,0.6,0.9,0.7c0.4,0.1,1-0.1,1.4-0.1c0.7,0,1.2-0.2,1.9-0.4c0.9-0.1,1.3,0.2,2,0.4
			c2.2,0.5-0.2-1.3,0.9-1.8c0.2-0.1,1.9,0.4,2,0.5c0.2,0.2,0.1,0.8,0.3,1c0.3,0.3,0.9-0.1,1.2,0.1c0.4,0.3,0.3,1,0.9,1.4
			c0.5,0.4,1.2,0.4,1.9,0.7c0.5,0.3,0.5,0.4,0.8,0.9c0.5,0.8,0.5,0.3,1.1,0.8c0.3,0.2,0.2,0.5,0.4,0.7c0.2,0.3,0.4,0.3,0.6,0.5
			c0.5,0.4,1,0.6,1.1,1.3c0,0.2,0.1,0.5,0,0.7c-1,0.2-3.3,0.9-2.5,2.2c0.3,0.4,1.3,0.7,0.8,1.3c-0.4,0.5-2.1,0.2-2.7,0.2
			c-0.9,0-1.2,0.4-2,0.5c-1,0.2-1.3-0.5-1.7,0.6c-0.2,0.6-0.1,1.5,0.4,1.8c1.6,1.1,3.8-1.2,5.2-1.2c0.1,0.5,1.5,1.2,1.9,1.6
			c0.3,0.3,0.6,0.8,0.9,1c0.3,0.1,0.9,0,1.3,0.1c0.2,0.1,0.5,0.3,0.7,0.4c0.7,0.2,2-0.2,2.5,0.2c0.7,0.6,0.2,1.7,1.2,2.3
			c0.3,0.2,1,0.4,1.3,0.5c0.5,0.2,1.1,0.4,1.5,0.1c1.5-1.1-1.3-1.8-1.7-2.2c-0.8-0.7-0.4-1.2-1.7-1.4c0-0.1,0-0.2,0-0.3
			c0.7,0,1.6-0.2,2.3,0.2c0.5,0.2,0.7,0.8,1.1,1.1c0.3,0.1,1.1,0.2,1.4,0.2c1.1,0,1.5-1.1,0.8-2c-0.5-0.8-1.2-0.6-1.9-1
			c-0.7-0.4-0.6-1-0.9-1.5c-0.5-0.7-1.5-0.6-1.8-1.6c-0.6-1.5,0.8-1.6,1.9-1.1c0.6,0.3,1,0.9,1.5,1.1c0.3,0.2,0.8,0,1.1,0.1
			c0.5,0.3,0.6,0.7,1.3,0.9c0,0.1,0,0.2,0,0.2c1.3,0.6,2.5-1.9,2.5-2.9c0-0.9-0.3-0.6-1-1.1c-0.2-0.2-0.3-0.7-0.5-0.9
			c-0.3-0.2-0.5-0.1-0.8-0.3c-0.3-0.2-0.6-0.5-0.9-0.7c-0.6-0.3-0.9-0.5-1.6-0.4c-0.4,0-0.6,0.4-1.1,0.2c-0.5-0.2-0.6-0.8-1-1.1
			c-0.5-0.4-1-0.3-1.5-0.6C166.4,112.3,167.6,112.2,168.1,111.8z"/>
		<path class="st0" d="M154.4,114.9c-0.1,0.8,1,1.4,1.9,1.1c1.6-0.6,0.2-2.1-0.6-2.7v-0.1C155.3,113.4,154.5,114.4,154.4,114.9z"/>
		<path class="st0" d="M139.9,124.2c0.3,0.6,1.7,0.2,2.1,0.3c0.5,0.1,0.8,0.5,1.4,0.4c1.1-0.1,1.4-2.1,2.7-1.5
			c0.7,0.3,0.6,0.9,1.4,1.1c-0.1,0,1.1,0,1,0.1c0.5-0.2,0.7-0.4,0.5-1.1c-0.4-1.1-1.6-0.8-2.4-1.4c-0.6-0.5-0.8-1.3-1.5-1.6
			c-0.7-0.3-1.7,0.3-2.2-0.4l-0.1-0.1c0.2-0.7-0.9-0.7-1.4-0.6c-0.1,0.8,0,1.5-0.3,2.1c-0.2,0.4-0.8,0.6-1,1c-0.1,0.2,0.1,0.5,0,0.7
			C140.1,123.6,139.7,123.9,139.9,124.2z"/>
		<path class="st0" d="M95.8,94.4c0.1,0.2,0.3,0.1,0.4,0.2c0.2,0.2,1.2,1.2,1.5,1.3c0.7,0.2,1.8-0.4,2.4-0.7
			c0.7-0.3,2.5-1.1,3.3-0.3c0.5,0.5,0.1,0.7-0.4,0.8c-0.8,0.2-1.5-0.3-2,0.7c0.7,0.7,1.3,1.5,2.5,1.5c0.9,0,1.2-0.4,1.9-0.9
			c0.7-0.5,1-0.3,1.7-0.6c0.7-0.2,1-0.5,1.7-0.5c0.7,0,1.5,0.1,2.2,0c1.5-0.3,2-1.1,1.7-2.4h0c0,0,0,0,0-0.1c0-0.1-0.1-0.2-0.1-0.3
			l0.1,0.2c-0.1-0.3-0.1-0.7-0.2-1c-0.7,0.4-2.3,0.8-3.1,0.3c-0.6-0.4-0.4-1.1-0.7-1.6c-0.9-1.2-3.2-0.2-2.8,1.3
			c0.2,0.6,0.7,0.9,0.1,1.4c-0.2,0.2-1.2,0.1-1.4,0.1c-1.2-0.2-2.4-0.8-3.5-1.3c-1.4-0.6-3.1-0.4-4.3,0.5
			C96.4,93.2,95.6,93.7,95.8,94.4z"/>
		<path class="st0" d="M112.7,93.4C112.8,93.4,112.8,93.4,112.7,93.4l0-0.2C112.7,93.3,112.7,93.3,112.7,93.4
			C112.7,93.4,112.7,93.4,112.7,93.4z"/>
		<path class="st0" d="M112.8,93.4L112.8,93.4C113.1,93.5,112.9,93.4,112.8,93.4z"/>
		<path class="st0" d="M102.5,89.2c0.7,0.2,2.7,0.1,3.3-0.1c0.5-0.2,1.3-1,0.5-1.4l-0.4,0.1c-0.6-0.3-2.1,0-3,0.1
			C102,88,101.3,88.8,102.5,89.2z"/>
		<path class="st0" d="M90.8,93.3c0,0.1,0,0.3,0,0.4c1,0.6,1.5-1.4,2-1.9c0.4-0.4,1.5-0.2,1.6-0.5c0.5,0.2,0.4,0.8,0.8,1
			c1,0.6,1.3-0.7,1.6-1.3c0.2-0.4,0.9-1,1-1.4c0.2-1.4-1.8-0.9-2.4-0.6C95,89,95,89.2,94.5,89.4c-0.7,0.2-1.5,0.1-2.2,0.3
			c-0.8,0.4-0.7,1.4-1.6,1.8c-0.6,0.3-2.1,0.1-2.4,0.9C88,93.5,90.2,93.2,90.8,93.3z"/>
		<path class="st0" d="M84.7,104.3c0.8,0.3,1.1,0.8,1.6,1.4c0.7,0.8,0.9,0.6,2.1,0.3c0.8-0.2,3.2-0.8,2.2-2.1c0.7-0.5,1.3-0.9,2-1.4
			c1-0.7,1.6-1.6,2.6-2.3c0.5-0.3,0.9-0.3,1.3-0.6c0.4-0.2,0.7-0.4,0.5-0.9c-0.2-0.6-1.6-0.7-2.1-0.7c-0.8-0.1-1.4,0.1-2.2,0.2
			c-0.8,0.1-1-0.1-1.6-0.5v-0.1c-0.7-0.5-2-0.1-2.9,0.1c-1.1,0.2-2-0.2-2.9,0.5c-0.2,0.5,0,0.8,0.1,1.3c0.2,0.9,0.1,0.9-0.6,1.8
			c-0.5,0.6-0.5,1.1-0.7,1.9C83.8,104.2,83.7,104,84.7,104.3z"/>
		<path class="st0" d="M98,100.6l-0.2,0.4C97.9,100.9,98,100.8,98,100.6z"/>
		<path class="st0" d="M112.8,103.1c-0.4-0.5-0.2-0.5-0.4-1.2c-0.2-0.6-0.3-0.6-0.7-0.9c-0.2-0.1-1.2-0.6-1.3-0.6
			c-0.9,0.2-0.4,1.5-0.5,2.3c-0.1,0.6-0.7,1.1-0.6,1.7c-0.7-0.4-0.3-1.8-1.1-2.4c-0.4-0.3-2.1-0.6-2.5-0.1c-0.4,0.4,0.2,1.7-0.5,1.9
			c-0.6,0.2-0.9-1.3-1.6-1.5c-0.4-0.1-0.8,0.1-1.2,0c-0.3-0.1-0.4-0.4-0.9-0.4c-0.9,0-1.3,0.7-1.8-0.3c-0.3-0.6,0.2-0.9-0.6-1
			c-0.4-0.1-0.9,0.1-1.2,0.4l0-0.1c-0.6,0.5-1.9,0.3-2.5,0.8c-0.4,0.3-1.2,1.3-1.3,1.8c-0.2,0.8,0.1,1.3,0.8,1.6
			c1,0.5,1.5-0.1,2.4-0.1c0.3,0,0.7-0.2,0.9,0.2c0.7,1.2-1.9,0.8-2.3,0.9c-1.5,0.2-2.3,1.6-0.3,1.8c1,0.1,2-0.4,3-0.4
			c0.7,0,1.2-0.1,1.8,0c0.7,0.1,2.5-0.3,2.6,0.6c-1.7,0.6-3.6,0.2-5.4,0.6c-0.6,0.2-1.2,0.1-0.7,1c0.4,0.8,1.8,0.5,2.5,0.9
			c1,0.4,1.5,1.4,2.6,1.7c1.5,0.5,4.1-0.1,5.6-0.5c0.7-0.2,1.4-0.7,2.1-0.6c0.3,0,0.6,0.3,0.9,0.3c0.4,0,0.8-0.2,1.2-0.3
			c0.7-0.2,0.9,0,1.5,0.2c0.6,0.2,1.1,0.1,1.6,0.3c0.9,0.2,1.7,1.3,2.5,0.2c0.9-1.1-1-1.2-0.8-2.1c0.4,0,1.9,0.2,2.3,0
			c1-0.7-1-1.7-1.6-1.8c-0.5-0.1-0.8-0.1-1.2-0.2c-0.5-0.2-1.4-0.6-1.9-0.9c-1-0.7-0.4-1.2-0.6-2.2
			C113.7,103.8,113.2,103.7,112.8,103.1z"/>
		<path class="st0" d="M181.7,103c0.1,0.2,0.4,0.3,0.5,0.5c0.2,0.3,0.1,0.5,0.5,0.7c0.3,0.2,0.7,0.3,1.1,0.2c0.2,0,0.3-0.2,0.4-0.2
			c0.1,0,0.3,0,0.4,0c0.3-0.1,0.3-0.3,0.4-0.6c0-0.3-0.1-0.5,0-0.9c0.1-0.3,0.2-0.3,0.2-0.6c-0.1-0.5-0.4-0.4-0.7-0.7
			c-0.1-0.1,0-0.3-0.1-0.4c-0.2-0.2-0.4-0.1-0.6-0.1c-0.2-0.1-0.8-0.1-0.8-0.5l0,0.1c-0.1-0.2-0.5-0.3-0.8-0.2
			c-0.5,0.3,0.1,0.6,0.1,0.9c0,0.3-0.2,0.3-0.3,0.5c-0.1,0.2,0.1,0.2,0,0.4C181.9,102.4,181.6,102.7,181.7,103z"/>
		<path class="st0" d="M144.8,213.8c0.9,0.5,1.1,1.4,2.2,1.6c0.2,0.1,1.8,0.4,2,0.2c0.3-0.2,0.1-0.7,0.2-0.9
			c0.2-0.2,0.6-0.4,0.8-0.4c0.8-0.3,1.7-0.3,2.2,0.5c0.3,0.5-0.1,1.2,0.4,1.5c0.2,0.1,1.7,0.1,2-0.1c0.6-0.6,0-1.2-0.4-1.5
			c0,0-0.5-0.1-0.6-0.2c-0.1-0.1,0-0.5-0.1-0.6c-0.5-0.4-2.2-0.8-2.8-1c-1.5-0.4-3.5,1.2-4.7,0c-1.3-1.2-2.1-2.5-1.6-4.3
			c0.2-0.9,0.3-1.4,0.3-2.3c0-1.3-0.2-1.6-1.5-1.7c-0.6,0-1.3,0.1-1.8-0.1c-0.4-0.1-0.6-0.4-1.1-0.5c-0.5-0.1-1.1,0.1-1.6,0.1
			c-0.2,0-1.4,0.4-1.6,0.3c-1.8-0.9,1.1-3.8,1.3-4.7c0.1-0.4-0.1-0.8,0-1.2c0.1-0.4,0.4-0.8,0.6-1.2c0.3-0.6,0.7-1.1-0.1-1.5
			c-0.4-0.2-1.8-0.1-2.2,0c-1,0.2-1.4,1-1.9,1.8c-0.4,0.6-0.6,1.6-1,2c-0.4,0.5-0.6,0.3-1.2,0.3c-0.9-0.1-1.9-0.2-2.9,0
			c-1.1,0.2-1.1-0.1-2.1-0.3c-0.7-0.2-1.3,0-2-0.5c-1-0.7-0.4-1.2-0.9-2c-0.2-0.4-0.8-0.5-1.1-1c-0.3-0.6-0.6-1.5-0.4-2.2
			c0.2-1.4,1.4-2.3,1.3-3.8c0-0.3-0.2-0.7-0.2-1c0.1-0.6,0.7-0.9,0.9-1.6c0.1-0.4,0.1-0.9,0.3-1.3c0.3-0.7,1.1-1.2,1.8-1.5
			c1.4-0.4,2.4-0.7,3.8-0.4c0.5,0.1,1.1,0,1.6,0c0.3,0,0.7-0.1,0.9,0c0.4,0.1,0.5,0.4,0.8,0.5c0.4,0.2,0.9,0.5,1.1-0.4
			c0.2-0.9-0.7-0.8-1-1.3c1.1-0.5,2.6-0.4,3.8-0.7c1.1-0.3,1.3-0.2,2.3,0c0.3,0,0.8-0.1,1.1,0c0.4,0.2,0.4,0.6,0.8,0.9
			c0.7,0.5,1.5,0.1,2.2,0.4c0.7,0.4,1.3,2,1.5,2.7c0.2,0.8,0.3,1.6,0.7,2.3c0.5,0.7,2.2,2.6,3.2,1.6c0.8-0.8-0.2-2.7-0.7-3.4
			c-0.7-1.1-1.2-1.4-1.2-2.8c0-0.7-0.1-1.5,0-2.2c0.2-1.3,0.9-1.1,1.7-1.9c0.6-0.6,0.7-1.6,1.2-2.3c0.7-0.9,1.5-0.7,2.4-1.1
			c1.1-0.5,1.9-1.7,2-2.8c0.1-1.3-0.6-2.1,0.6-3c0.8-0.7,1-1.1,1.4-2.1c0.2-0.5,0.5-0.8,0.9-1.2c0.1-0.1,0.2,0.2,0.4,0.1
			c0.2-0.2,0.3-0.7,0.4-0.9c0.7-1.3,1.6-1.1,2.9-1.2c1.3-0.1,2.1,0.4,2.2-1.2c0-1.5-0.1-1.5,1.1-2.4c1-0.7,2.1-1.5,3.3-1.9
			c0.5-0.2,1-0.1,1.4-0.4c0.3-0.1,0.7-0.5,1.1-0.5c-0.5,0.7-2.1,2.2-0.4,2.8c0.9,0.3,1.6-0.4,2.2-1c0.9-0.8,1.4-0.6,2.4-0.8
			c1.2-0.1,3.7-1.8,3.8-3.1c0-0.3-0.2-0.9-0.4-1.1c-0.8-0.5-1,0.4-1.3,0.9c-0.4,0.6-0.6,0.9-1.2,1.1c-0.4,0.1-2.1,0-2.5-0.2
			c-0.8-0.4-0.6-1.3-1.3-1.9c-0.5-0.5-1-0.1-1.1-1.2c0-1,1.5-1.5,0.3-2.4c-1.4-1.1-4.2,0-5.1,1.3c-0.2,0.2,0,0.5-0.2,0.7
			c-0.3,0.4-1.1,0.4-1.5,0.6c-0.8,0.3-2.1,0.5-2.7,1c0.4-1.2,1.7-2.3,2.8-2.7c1.1-0.5,1.4-1.3,2.3-1.9c0.5-0.3,1.1-0.4,1.5-0.8
			c0.2-0.2,0.2-0.6,0.5-0.7c0.5-0.3,1.3,0,1.9,0c0.9,0.1,1.5,0,2.4-0.2c0.7-0.1,1.5-0.2,2.1-0.1c0.5,0.1,1,0.4,1.5,0.3
			c0.7-0.1,1.4-0.5,2-0.8c1.1-0.6,1.7-0.2,2.9-0.2c0.1,1.4-0.7,1.4-1.2,2.6c-0.3,0.6-0.1,1.4-0.2,2.1c-0.2,1.1-0.5,1.3,1.2,1.4
			c0.9,0,2-0.4,2.9-0.3c0.4,0.1,0.5,0.4,0.7,0.5c0.6,0.4,1.2,1,1.7,1.3c1,0.5,2.2,0,2.1-1.2c-0.1-1-1.2-1.1-1.4-2
			c-0.1-0.5,0.1-1.2,0-1.7c-0.1-1.4-1.3-1.2-2.5-1.3c-0.2-0.8-1.1-1.3-1.3-2c-0.1-0.4,0.2-0.7,0.2-1c0-1.4-2.1-0.9-0.7-2.5
			c-0.4-0.5-2.1-1.4-2.8-1.5c-1-0.1-1.1,1.2-2.3,1c-1-0.1,1.6-2.3,1.6-2.3c0.9-1.5-1.2-1.5-1.9-2.2c-0.2-0.2-0.2-0.6-0.3-0.7
			c-0.2-0.2-0.4-0.1-0.7-0.2c-0.2-0.2-0.4-0.4-0.7-0.6c-0.1,0-0.8-0.5-0.8-0.5c-0.4-0.9,0.5-0.5,0.7-1.1c0.5-1.1-1.8-2-2.1-2.7
			c-0.3-0.7-0.3-1-0.9-1.6c-0.9-0.9-1.7-1.8-2.7-0.6c-0.6,0.8-0.4,1.3-1,2c-0.6,0.7-1.8,1.5-2.8,1.6c-1.2,0-1.3-1-2.4-1.3
			c0-0.9,0.2-1.6,0.3-2.5c0.2-1.3-0.9-1.2-1.6-1.9c-0.3-0.4-0.3-0.8-0.8-1.1c-0.3-0.2-0.8-0.1-1.2-0.2c-0.8-0.3-1.2-0.6-1.6-1.3
			c-0.2-0.3,0.2-0.5-0.2-0.7c-0.3-0.2-1.1,0.1-1.5,0.1c-1.2,0-2.3-0.3-3.5-0.3c-1.1,0-4-0.7-3.4,1.2c0.2,0.5,0.9,1,1.2,1.4
			c0.3,0.4,0.7,0.9,0.8,1.3c0.2,0.8-0.1,1.7-0.5,2.4c-0.8,1.5,0.2,1.7,0.8,3.2c0.7,1.7,0.5,3.3-0.7,4.8c-0.8,1-2.8,0.7-2.6,2.4
			c0,0.3,0.3,0.7,0.4,1c0.1,0.5,0,0.9,0,1.4c0,0.6,0.4,1.4,0.2,2c-0.2,0.5-1.4,1.1-1.9,0.9c-0.3-0.1-1-0.7-1.3-0.9
			c-0.7-0.3-1-0.6-1.4-1.3c-0.9-1.5-0.3-2.9-0.5-4.5c-0.1-1,0.2-1.2-0.7-1.4c-0.6-0.1-1.4,0.2-2,0.2c-0.9,0-1.6-0.2-2.3-0.4
			c-1.2-0.4-2-0.3-3-1.2c-0.4-0.4-0.8-0.6-1.3-0.7c-0.3-0.1-0.7,0.1-1,0c-0.2-0.1-0.4-0.4-0.5-0.6c-1.2-0.8-2.2,0-3.4-0.1
			c-0.2-0.7-0.1-1.8-0.5-2.3c-0.3-0.4-0.9-0.5-1.3-0.7c-0.7-0.4-1.3-0.6-2.1-0.8c-0.8-0.1,0.3-2.2,0.3-2.5c0-0.6-0.5-0.8,0.2-1.4
			c0.5-0.4,1.1-0.4,1.5-1c0.5-0.6,0.1-1.4,0.5-2c0.3-0.5,1-0.7,1.4-1.2c0.4-0.4,0.4-0.6,0.9-0.9c0.2-0.1,0.5-0.2,0.7-0.4
			c0.3-0.3,0-0.5,0.5-0.7c0.8-0.5,1.7-0.4,2.5-1.2c0.6-0.6,0.7-0.8,1.5-1.1c0.3-0.1,0.5-0.2,0.6-0.5c0.2-0.6-0.2-0.5-0.7-0.6
			c-0.6-0.1-1.1-0.3-1.6-0.7c-0.1-0.1-0.1-0.3-0.2-0.3c-0.2-0.1-0.6-0.1-0.8-0.3c-0.4-0.4-0.2-0.7,0.3-0.8c0.7-0.2,1,0.6,1.6,0.9
			c0.5,0.3,1.1,0.4,1.6,0.3c1.4-0.2,1.4-1.4,1.7-2.5c0,0.1-0.2-0.3-0.2-0.2c0.5-0.1,1.5,0,1.9,0.1c0.4,0.2,0.4,0.4,0.9,0.5
			c0.2,0.1,0.7,0.1,0.9,0c0.3-0.1,0.3-0.5,0.5-0.6c0.6-0.2,1.1,0.6,1.8,0.3c0.5-0.2,1.3-0.9,1.3-1.6c-0.1-0.6-1-1-1.3-1.5
			c-0.1-0.1-0.1-0.3-0.1-0.4c-0.1-0.2-0.3,0-0.4-0.3c-0.3-0.9,0.7-0.6,1.2-0.6c0.5,0,1-0.1,0.5-0.9c-0.3-0.4-0.9-0.5-1.3-0.9
			c-0.6-0.6-0.9-0.7-1.8-0.7c-0.6,0-1.2,0-1.8,0c-0.4,0-0.8-0.1-0.9,0.4c-0.3,0.9,1,0.8,0.4,1.9c-0.3,0.5-0.6,0.8-0.9,1.3
			c-0.4,0.7-0.7,1.2-1.6,1.2c-0.2,0.8-2.1-0.3-2.1-0.8c-0.1-0.6,0.8-1.1,0.7-2c-0.5-0.1-0.8-0.1-1.2-0.3c-0.5-0.3-0.7-0.7-1.3-0.7
			c-1,0.1-0.6,1.8-1.7,1.2c-0.8-0.4-0.4-1.1-0.6-1.7c-0.2-0.9-1.2-0.6-1.5-1.3c-0.4-0.8,0.7-0.6,0.6-1.2c0-0.4-0.9-0.5-1.1-0.7
			c-0.3-0.3-0.1-0.7-0.3-1c-0.2-0.3-0.3-0.2-0.7-0.4c-0.5-0.3-0.8-1-1.3-1.3c-0.7-0.5-1.8-0.4-2.4,0.2c-0.6,0.6-0.7,1.9-0.7,2.7
			c0,0.2-0.1,0.6,0.1,0.9c0.2,0.4,0.3,0.2,0.8,0.3c0.7,0.2,0.9,0.8,1.6,0.9c0.3,0.1,1.5-0.1,1.7,0.1c0.5,0.6-0.4,1.5-0.7,1.8
			c-0.5,0.4-1,0.9-1.3,1.5c-0.1,0.2-0.4,0.7-0.4,0.9c-0.1,0.3,0.1,0.8,0,1.1c-0.3,0.6-1.1,0.6-1.5,0.2c-0.7-0.7-0.2-1.4-0.2-2.1
			c-0.1,0-0.3,0-0.4,0c0-0.6,0.7-0.8,0.8-1.4c0.4-1.4-0.8-0.9-1.4-1.3c-0.6-0.4-0.3-0.9-1.2-1c-0.9-0.1-1.6,0.5-1.7,1.4
			c0,0.3-0.1,0.7,0.1,0.9c0.3,0.5,0.8,0.1,1.1,0.4c0.2,0.2,0.1,1.1,0,1.5c-0.2,0.8-0.7,0.6-1.5,0.6c-0.3,0-0.6,0-0.9,0
			c-0.4,0.1-0.4,0.2-0.8,0.3c-0.5,0.2-0.7-0.1-1.2-0.1c-0.4,0-0.8,0.1-1.3,0.1c-0.6,0-1.4,0.1-2.1-0.1c-0.4-0.2-0.7-0.5-1.1-0.6
			c-0.4-0.1-0.9,0-1.3-0.1c-0.7-0.2-0.9-0.5-1.7-0.3c-0.3,0.1-1.8,0.4-2,0.6c-0.2,0.3,0.4,1.5,0.5,1.9c0,0.2,0,0.5,0,0.8
			c-1.3,0.3-1.1-0.2-1.4-1.1c-0.5-1.2-1.5-0.7-2.5-0.9c-0.4-0.1-0.7-0.4-1.1-0.5c-0.8-0.2-1.7,0.2-2.5,0.4c-0.4,0.1-0.8,0.2-1.2,0.1
			c-0.2,0-0.3-0.2-0.4-0.3c-0.4-0.1-0.9,0.1-1.4,0.1c-0.3,0-1.7-0.1-1-0.7c0.1-0.1,0.5,0.1,0.7-0.1c0.2-0.2,0.2-0.9,0.1-1.2
			c-0.2-0.8-0.7-0.6-1.3-0.7c-1.3-0.2-2.6-0.1-3.9-0.3c-0.6-0.1-1.2-0.5-1.7-0.7c-0.4-0.2-0.6-0.2-0.9-0.5c-0.1-0.2-0.2-0.6-0.4-0.7
			c-0.4-0.2-1.1,0-1.5-0.2c-0.4-0.2-0.6-0.5-1.1-0.3c-0.3,0.1-0.6,0.3-0.9,0.5c-0.4,0.3-0.8,0.6-1.2,0.8c-0.3,0.1-0.6,0-0.9,0.2
			c-0.2,0.1-0.3,0.3-0.5,0.3c-0.4-0.7,0-1.4-1.1-1.3c-0.5,0.1-0.8,0.8-1.3,0.7c-0.8-0.2-0.7-1.9-1.5-2.2c-0.3-0.1-0.8-0.2-1.1-0.4
			c-0.2-0.1-0.3-0.3-0.5-0.2c-0.1,0.7,0,1.3-0.7,1.7c-0.5,0.3-1.1,0.2-1.6,0.4c-0.7,0.3-1.1,0.8-1.9,0.9c-0.7,0.2-1.2,0.2-1.8,0.7
			c-0.9,0.8-1.1,0.4-1.9-0.2c-1-0.7-2-0.6-3.2-0.6c-0.1,0.4-0.1,0.8-0.1,1.2c-0.8,0.1-1.5-0.4-2.3-0.4c-1,0-1.6,0-2.5-0.5
			c-0.3-0.2-0.6-0.4-0.8-0.5c-0.6-0.2-1.2,0-1.8-0.1c-0.6-0.1-0.8-0.5-1.2-0.9c-0.4-0.4-1.1-0.7-1.7-0.9c-0.8-0.2-1.2,0.1-1.9,0.2
			c-0.6,0.1-1.2-0.3-1.8-0.3c-1.2,0-2.3-0.2-3.4-0.3c-0.7-0.1-1.2-0.5-2-0.5c-0.6,0-1.3,0-1.9,0.1c-0.7,0.1-0.8,0.1-1.3-0.2
			c-0.3-0.2-0.5-0.4-1-0.4c0-0.5-0.8-0.7-1.2-0.8c-0.8-0.1-1.3,0.1-1.9,0.5c-0.4,0.2-1.6,0.2-1.8,0.7l0-0.2
			c-0.2-0.3-0.3-1.4-0.6-1.7c-0.3-0.3-1.3-0.4-1.7-0.3c-1,0.1-0.5,0.4-1,0.9c-0.5,0.6-1.5,0.7-2.2,0.9c-1.2,0.2-1.3,0.3-1.3,1.7
			c-1.1,0-3.1-0.5-3.9,0.5c-0.8,1-0.2,1.9-1.8,2.4c-0.6,0.2-4.8,0.1-3.6,1.8c0.2,0.3,1,0.2,1.3,0.3c0.5,0.2,0.5,0.4,0.9,0.7
			c0.5,0.4,0.4,0.3,1.1,0.5c0.7,0.3,0.8,0.5,1.4,0.9c0.7,0.5,1.9,0.3,2.7,0.6c0.7,0.2,1.4,0.6,2,1c-0.9,1.1-2.4,0.7-3.6,0.6
			c-0.8,0-2.2,0.7-1.9-0.8c-0.3,0-0.9-0.1-1.2,0c-0.4,0.1-0.6,0.7-0.9,0.8c-0.6,0.4-1.6,0-2.1,0.4c-1.5,1,0.3,4,1.8,3.7
			c0.7-0.1,1.7-0.8,2.4-0.8c0.6,0.1,0.9,0.5,1.6,0.4c1.2-0.1,3-1.4,3,0.7c0,1.2-1.2,1.3-2.2,1.6c-0.8,0.2-1.2,0.7-1.9,1
			c-0.8,0.3-1.4,0.5-1.6,1.5c-0.1,0.3,0.1,0.7,0,1c-0.3,0.6-0.8,0.7-0.9,1.5c-0.3,2.4,3.6,1.4,4.5,2.6c0.6,0.9,0.1,1.7,1.4,2
			c0.8,0.2,1.9-0.1,2.7,0.1c0.7,0.2,1.1,0.6,1.9,0.6c0.7,0.1,0.6-0.3,1,0.4c0.2,0.5,0,1.7-0.4,2c-0.3,0.3-0.6,0.1-0.9,0.5
			c-0.4,0.4-0.2,0.7-0.7,1c-1,0.6-2.4,0.4-3.5,1c-0.8,0.4-1.3,1.1-2.1,1.3c-0.7,0.2-1.4,0-1.9,0.6c-0.3,0.4-0.3,1.1-0.4,1.6
			c0.8,0.1,1.2-0.7,1.7-1.1c0.6-0.4,1.1-0.4,1.7-0.4c0.6-0.1,1.1-0.1,1.6-0.5c0.8-0.5,1.3-1.5,2.1-1.8c0.5-0.2,1.1-0.1,1.6-0.3
			c0.8-0.3,1.2-0.8,1.9-1.2c1.2-0.7,2.6-1.1,3.8-1.8c1.6-0.9,0.7-1.3,0.5-2.5c-0.2-1.1,1.6-1.7,2.3-2.5c0.4-0.4,1-1.8,1.8-1.1
			c1,0.8-0.9,2.1-0.9,2.9c0.3,0.1,0.6,0.3,0.6,0.6c2,0.1,3.1-0.8,3.9-2.6c0.2-0.5,0-1.3,1.1-1c0.6,0.1,0.6,0.7,1.1,0.8
			c0.1,0.3,2.1,0.2,1.1,0.9c0.8,0.7,2.5,0.4,3.5,0.4c1.2,0,2.2,0,3.2,0.4c0.4,0.2,0.5,0.3,1.1,0.3c0.3,0,0.5-0.3,0.8-0.3
			c0.1,0,0.2,0.5,0.4,0.5c0.5,0.2,1,0.1,1.5,0.3c1.2,0.4,2.1,2,3.4,2c1,0,2.8-2,3.8-0.8c0.3,0.3,0,1,0.3,1.4
			c0.4,0.4,0.8,0.1,1.2,0.4c0.5,0.2,0.6,0.7,0.8,1.1c0.2,0.5,0.2,0.5,0.6,1c0.2,0.2,0.5,0.7,0.7,0.8c0.3,0.2,0.8,0.2,1,0.4
			c0.5,0.5,0.2,1.5,0.8,2c0.6,0.6,0.9,0.8,1.2,1.5c0.4,0.9,0.5,1,1.2,1.5c0.8,0.6,1.4,0.9,1.6,1.9c0.1,0.7-0.1,1.9,0.6,2.4
			c0.3,0.3,1.3,0.3,1.7,0.5c0.5,0.1,0.8,0.3,1.3,0.5c0.5,0.2,1.1,0.1,1.5,0.3c0.3,0.2,0.6,0.7,0.9,0.9c0.3,0.2,0.6,0.3,0.9,0.5
			c0.6,0.5,0.6,1.1,1,1.7c0.3,0.5,0.8,0.5,0.9,1.2c0.1,1.4-1.3,0.9-1.9,0.3c-0.2-0.2-0.3-0.5-0.5-0.7c-0.2-0.2-0.5-0.2-0.7-0.4
			c-0.7-0.5-0.9-0.7-1.9-0.9c-1-0.2-1-0.2-1.7-1c-0.5-0.5-1.6-1.5-2.5-1.2c-0.6,0.2-0.5,0.4-0.1,0.9c0.3,0.3,0.9,0.4,1.3,0.6
			c0.6,0.4,0.8,0.7,1.2,1.2c0.6,0.7,1.6,0.9,2.2,1.5c0.4,0.4,1.1,1.5,1.3,2c0.4,0.7,0.3,0.6,0,1.6c-0.2,0.8-0.2,1.6-0.2,2.5
			c0,0.9-0.2,1.7-0.2,2.5c0,0.5,0.3,1,0.3,1.4c0,0.5-0.3,0.8-0.3,1.2c0,0.5,0.4,0.8,0.6,1.2c0.2,0.5,0.2,0.9,0.3,1.4
			c0.2,1,0.5,2,0.9,2.9c0.6,1.3,1.5,2.1,2.5,3.1c0.2,0.2,0.6,0.4,0.7,0.6c0.5,0.6,0.3,1.3,0.7,2c0.5,0.8,1.2,1.1,1.9,1.6
			c0.3,0.2,0.5,0.5,0.8,0.6c0.3,0.1,0.5-0.2,0.8-0.1c0.8,0.3,0.8,1.4,1.2,2c0.4,0.6,1.1,1.1,1.6,1.8c0.6,0.8,1,1.5,1.6,2.3
			c0.5,0.6,1.3,1.6,1.2,2.5c-0.2,1.3-0.9,0.8,0.3,1.6c0.8,0.5,1.8,1,2.5,1.7c0.5,0.6,1.1,1,1.6,1.6c0.4,0.4,0.5,1.1,0.8,1.5
			c0.1,0,0.1,0,0.2,0c0.4-0.8,0.6-1.5,0.4-2.4c-0.3-1.2-1.5-1.4-2.2-2.4c-0.3-0.5-0.3-1-0.6-1.5c-0.2-0.3-0.5-0.2-0.8-0.5
			c-0.3-0.3-0.2-0.8-0.5-1.1c-0.5-0.6-1.2-0.3-1.7-0.7c-0.3-0.3-0.8-1.5-1-1.9c-0.2-0.4-0.7-1.8-0.3-2.2c0.2-0.1,1.4-0.1,1.6,0
			c0.8,0.3,1.4,1.3,1.9,2c0.9,1.2,1.5,2.4,2.4,3.6c0.5,0.7,0.7,1.2,1.3,1.7c0.4,0.3,0.7,0.5,1,0.8c0.3,0.3,0.5,0.6,0.9,0.8
			c0.3,0.2,1,0.2,1.1,0.3c0.5,0.4,0.3,0.9,0.5,1.4c0.3,0.6,1.5,1.1,2,1.7c0.5,0.6,0.8,1.5,0.9,2.3c0.1,1.1,0,1.5,0.6,2.4
			c0.3,0.5,0.4,0.5,0.5,1.1c0.1,0.4-0.1,0.7,0.2,1c0.4,0.5,2,0.7,2.6,1c0.9,0.5,2,1.2,3,1.5c0.5,0.2,1,0,1.4,0.2
			c0.7,0.2,0.9,0.7,1.5,1c1.2,0.6,2.9,0.4,4.2,0.2c0.4,0,0.9-0.1,1.3-0.1c0.4,0,0.9,0.3,1.2,0.3c0.5-0.1,0.5-0.6,1.2-0.5
			c0.6,0.2,1,1.2,1.5,1.7c0.3,0.3,0.8,0.5,1.1,0.8c0.2,0.2,0.4,0.7,0.7,0.9c0.5,0.3,1.4,0,2,0.1c0.9,0.1,1.6,0.2,2.5,0.2
			c1.2,0,0.7,0.4,1.1,1.4c0.3,0.8,1,1.1,1.4,1.8c0.3,0.4,0.2,0.7,0.7,1c0.1,0.1,0.4,0,0.5,0.1c0.7,0.4,0.2,0.4,0.6,1.1
			C142.9,213.7,144.1,213.4,144.8,213.8z"/>
		<path class="st0" d="M43.8,136l0.5-0.2c-0.5,0.1-0.7,0.4-1,0.6c-0.4,0.2-0.8,0.1-1.1,0.3c-0.1,0-0.6,0.6-0.7,0.7
			c-0.2,0.3-0.2,0.7,0.1,0.9c0.6,0.3,0.9-0.5,1.2-0.7c0.4-0.3,1.3,0,1.7-0.3C45.2,136.7,44.5,136,43.8,136z"/>
		<path class="st0" d="M24.1,143.6c-0.1-0.3,0-0.5-0.3-0.7c-0.1,0-0.2,0.1-0.2,0.1l0.3,0.3c-0.3,0.2-0.4,0.5-0.6,0.7
			c-0.3,0.2-0.4,0-0.7,0.1c-0.3,0-1.5,0.5-1,1.1c0.1,0.2,1.5,0.2,1.7,0.1c0.8-0.2,1.3-0.7,1.2-1.5C24.4,143.7,24.2,143.6,24.1,143.6
			z"/>
		<path class="st0" d="M69.8,136.7c-0.2-0.6,0.1-0.6-0.5-0.9c-0.5-0.4-0.8-0.2-1.4,0l-0.1-0.1c0.2,0.4,0.5,0.5,0.7,0.8
			c0.2,0.4,0.3,1.1,0.6,1.4c0.6,0.7,1.5,0.4,1.2-0.7C70.2,137.1,69.9,137,69.8,136.7z"/>
		<path class="st0" d="M73.3,141.7c0.5,0.4,0.9,0,0.7-0.6c-0.1-0.2-0.3-0.2-0.4-0.3c-0.1-0.2,0-0.5-0.1-0.7
			c-0.2-0.4-0.6-0.4-0.8-0.7c-0.1-0.1-0.1,0-0.1,0.1l-0.1-0.1c0,0.2-0.2,0.9,0.3,1C72.9,140.8,73,141.5,73.3,141.7z"/>
		<path class="st0" d="M73.3,143.2c-0.3,0.7,0.8,2.5,1.4,1.6C75.2,144,74,143.1,73.3,143.2z"/>
		<path class="st0" d="M73.1,143.5l0.2-0.3c0,0,0,0,0,0C73.2,143.4,73.1,143.4,73.1,143.5z"/>
		<path class="st0" d="M73.3,143.2C73.3,143.2,73.3,143.2,73.3,143.2c0-0.1,0.1-0.1,0.1-0.1L73.3,143.2z"/>
		<path class="st0" d="M157.1,197.8c0.6-1-1.5-1.6-2-1.7c-2-0.5-3.7-1.6-5.6-2.3l0.5,0.1c-0.9-0.5-1.5-0.2-2.3-0.2
			c-0.6,0-1.1-0.2-1.8-0.2c-0.9,0.1-2.9-0.2-3.1,1.2c-0.2,1.4,3.2,0.2,4,0.2c1.7-0.1,2.9,0.1,4.1,1.3c0.8,0.8,1.8,0.3,2.6,0.7
			c0,0,0.2,0.3,0.2,0.4c0.2,0.2,0.5,0.1,0.7,0.2c0.4,0.2,0.7,0.2,1.2,0.3C156,197.9,156.9,198.1,157.1,197.8z"/>
		<path class="st0" d="M154.4,200.2l0.3,0.2c0-0.1-0.1-0.2-0.2-0.3C154.4,200,154.3,200.1,154.4,200.2z"/>
		<path class="st0" d="M152.8,200.1c-0.3,0.1-1.1,0.6-0.9,1.1c0.3,0.5,1.7-0.2,2.1-0.3c0.3-0.1,0.7-0.2,0.6-0.6
			C154,200,153.6,199.9,152.8,200.1z"/>
		<path class="st0" d="M154.6,200.4C154.6,200.4,154.7,200.4,154.6,200.4c0,0,0.1,0.1,0.1,0.1L154.6,200.4z"/>
		<path class="st0" d="M158.4,201.5c1.1,0.8,2.3-1.2,3.3-0.8c0.5,0.2,0.5,0.8,1.2,0.8c0.7,0,1.4-0.5,2.2-0.5c0.4,0,1.2,0.1,1.3-0.4
			c0.1-0.6-1.2-1.2-1.7-1.4c-0.3-0.1-0.9-0.1-1.1-0.3l0.3,0.1c0.5-0.6-1.6-0.7-2.1-0.6c-0.8,0.2-1.5,0.4-2.4,0.5
			c-0.2,0.4,0,0.7,0.1,1C159,199.9,157.2,200.6,158.4,201.5z"/>
		<path class="st0" d="M169.8,200C169.8,200,169.8,200,169.8,200c0.1,0,0.2,0,0.3,0H169.8z"/>
		<path class="st0" d="M168.5,200.4c-0.1,0.2,0.1,0.8,0.1,1.1c1.1,0.5,2.1-1.1,1.3-1.5C169.3,200,168.8,199.7,168.5,200.4z"/>
		<path class="st0" d="M207.4,237.7c-0.6-0.3-1.3,0.1-1.9-0.2c-0.2-0.1-0.4-0.4-0.5-0.6c-0.2-0.1-0.4,0-0.6-0.2
			c-0.1-0.2-0.1-0.4-0.2-0.6c-0.4-0.8-0.9-0.7-1.8-0.9c-1.1-0.2-1.4-1.1-2.5-0.9c-0.6,0.1-1.1,0.2-1.7,0c-0.5-0.1-0.9-0.5-1.4-0.5
			c-0.7,0-1.1,1-1.7,0.4c-0.5-0.4,0-1.4-0.4-1.8c-0.4-0.4-1.3,0-1.7-0.2c-0.2-0.1-0.3-0.5-0.6-0.6c-0.3-0.2-0.7-0.1-1-0.2
			c-0.7,0-1-0.1-1.4,0.4c-0.3,0.4-0.6,1.4-1.4,1c-0.1-1,0.9-1.9-0.4-2c-0.5,0-1.2-0.1-1.7,0c-0.9,0.2-0.6,0.7-0.8,1.4
			c-0.2,0.5-1,1.2-1.6,0.7c-0.7-0.7,0.4-1.4,0.8-1.7c0.6-0.4,1.4-1.1,1.4-2c0-0.5-0.3-0.9-0.4-1.4c0-0.2,0-0.5-0.1-0.7
			c-0.1-0.1-0.3-0.1-0.4-0.2c-0.2-0.4-0.1-0.7-0.2-1.2c-0.2-0.7-1.3-1.6-1.9-1.9c-1.3-0.6-3.1,0.3-4.3-0.5c-0.7-0.5-0.9-1.5-1.8-1.8
			c-0.8-0.3-1.3,0.5-2,0.4c-1.1-0.1-0.5-1.4-1.1-2c-0.2-0.2-0.6-0.4-0.8-0.6c-0.4-0.3-0.5-0.5-1.1-0.5c-0.8,0-1.4,0.6-1.6-0.3
			c-0.3-0.9,0.4-1.5-0.7-1.9c-0.5-0.2-1.2-0.5-1.8-0.6c-0.9-0.1-1.5,0.6-2.3,0.6c-0.6,0-1.3-0.4-1.9-0.5c-0.2,0-0.5,0-0.7-0.1
			c-0.1,0-0.3,0.1-0.5,0.1c-0.1-0.1-0.2-0.4-0.3-0.5c-0.5-0.4-0.9-0.3-1.6-0.3c-0.7,0-0.8-0.1-1.3-0.5c-0.9-0.8-2.5-0.7-3.1,0.5
			c-0.3,0.5,0.5,3.1-0.6,2.8c-0.4-0.1-0.5-1.2-0.5-1.5c-0.1-0.8,0-1.5-1-1.6c-0.5,0-1.1-0.1-1.5-0.1c-0.4,0-1.6,0.1-1.9,0.4
			c-0.7,0.6-0.7,1.7-1.3,2.4c-0.4,0.4-1.1,0.6-1.5,0.9c-0.7,0.5-1.4,1.3-1.5,2.2c-0.1,1,0.9,1.4,0.9,2.3c0,0.8-0.5,1.7-0.7,2.4
			c-0.3,0.9-1,1.9-1.8,2.5c-0.8,0.6-1.6,1-2,2.1c-0.1,0.4-0.1,0.7-0.2,1.1c-0.1,0.4-0.4,0.6-0.6,1c-0.4,0.8-0.4,1.5,0.5,1.7
			c0.6,0.2,1.5,0.2,0.9,0.9c-0.2,0.3-0.7,0.3-1,0.6c-0.3,0.3-0.5,0.9-0.5,1.3c-0.2,1.1,0,2,0.8,2.7c1.3,1.1,2,2.3,2.8,3.8
			c0.5,0.9,1,1.5,1.6,2.3c0.9,1.2,0.4,2.9,1.3,4.1c0.6,0.8,1.4,1.2,2.1,1.9c0.4,0.4,0.6,0.9,1.1,1.2c0.5,0.3,0.8,0.4,1.3,0.7
			c0.4,0.3,0.8,0.3,1.2,0.5c0.7,0.4,1.1,1.2,1.7,1.7c0.5,0.4,1.2,0.4,1.6,1c0.5,0.9,0.1,2.1,0,3.1c-0.2,1.1-0.2,2.1-0.2,3.3
			c-0.1,1.6-1.5,2.6-0.7,4.1c0.9,1.7,0.9,3.9-0.2,5.6c-0.6,1-0.9,2.1-1,3.3c-0.1,1.2-0.5,2.3-0.7,3.4c-0.1,0.7,0.3,1.6,0.2,2.1
			c-0.1,0.3-0.9,0.8-1.1,1.1c-0.2,0.4-0.4,0.7-0.5,1.1c-0.4,1.6-0.5,3.2-0.4,4.8c0,0.4,0.1,0.5-0.1,0.9c-0.1,0.3-0.5,0.7-0.5,1
			c0,0.8,1.1,0.5,1.6,0.8c0.7,0.4,0.4,1.1,0,1.8c-0.5,0.9-0.1,1.2,0.1,2.1c0.2,0.9-0.4,1.2-0.9,1.8c-0.4,0.5-0.6,1.4-0.9,2
			c-0.7,0.2-0.8-0.8-1.4-0.4c-0.2,0.1-0.4,1-0.4,1.2c0,0.5,0,0.3,0.4,0.6c0.9,0.9,0.6,1.3,0.9,2.5c0.1,0.3,0.3,0.6,0.3,0.9
			c0,0.5,0,1,0,1.5c0,0.5-0.3,1.1-0.1,1.7c0.2,0.6,0.6,0.7,1,1.1c0.6,0.6,0.8,1.5,0.8,2.3c0,0.9-0.2,1.2,0.7,1.6
			c0.4,0.2,0.9,0.3,1.3,0.6c0.3,0.2,0.3,0.5,0.6,0.6c0.3-0.5,0.6-1.1,1.1-1.1c0.7,0,1.2,1.1,1.2,1.7c-0.4,0.1-1.3,0.1-1.3,0.7
			c0,0.7,1.1,0.4,1.4,0.4c1.3-0.1,2.4,1,3.8,0.9c0.3,0,1.5-0.2,1.7-0.5c0.7-0.7-0.3-1-0.8-1.2c-1.1-0.4-2.2-0.7-2.9-1.6
			c-0.2-0.3-0.6-0.7-0.7-1.1c-0.1-0.3,0-0.7-0.1-1c-0.2-0.5-0.5-0.4-0.7-0.8c-0.2-0.4,0.1-1.3,0.2-1.7c0.1-0.5,0.3-1.1,0.8-1.4
			c0.2-0.1,0.4,0.1,0.6-0.1c0.4-0.3,0.7-1.6,0.9-2c0.3-0.7,0.9-1.7,1.7-2c0.5-0.2,1,0.1,1.1-0.5c0.4-1.9-3.9-1.3-3.2-3.7
			c0.5-0.1,1-0.5,1.6-0.6c0.5-0.1,0.5,0.1,0.9-0.3c0.2-0.3,0.4-0.9,0.5-1.3c0.3-0.9,0.6-1.5,1.3-2.1c0.3-0.3,0.8-0.5,1-0.8
			c0.7-1-1.2-1-1.5-1.6c-0.5-0.7,0.5-1.7,1.2-1.7c0.5,0,0.6,0.4,1.1,0.5c0.4,0.1,1,0,1.4-0.2c1-0.6,1.2-1.9,0.5-2.8
			c0.4-0.2,1.1,0,1.6,0.1c0.9,0.2,1.2,0.3,2.1-0.1c1.3-0.6,2.2-0.9,3.2-1.9c0.6-0.6,1.5-0.9,1-1.9c-0.2-0.4-0.6-0.7-0.7-1.1
			c-0.2-0.7,0.1-1.5,0.3-2.1c-0.4,0-0.8,0-0.8-0.5c2.1-1.7,5.1,2.1,6.5-0.8c0.3-0.6,0.4-1.3,0.7-1.8c0.3-0.5,0.6-0.8,1.2-1.1
			c0.8-0.5,1.6-0.9,2.4-1.5c0.9-0.7,1.2-1,1.1-2.1c0-0.6,0-0.8,0.3-1.3c0.3-0.6,0.8-0.8,1.2-1.3c0.5-0.6,0.7-1.4,0.5-2.2
			c-0.2-0.9-0.4-1.6,0.4-2.3c0.6-0.5,1-0.9,1.7-1.3c0.5-0.3,0.9-0.9,1.5-1c0.1,0,0.2,0.1,0.3,0.1c0.4,0,0.6-0.2,1-0.3
			c0.6-0.2,1.4-0.2,2-0.3c0.5-0.1,1,0.1,1.4,0.1c0.8-0.1,1.2-1.1,1.6-1.8c0.5-0.7,0.8-1.4,1.3-2.1c0.5-0.7,1.3-1.4,1.7-2.1
			c0.5-0.9,0.2-2.4,0.2-3.4c0-0.8-0.2-1.9,0.1-2.6c0.3-0.8,1-1.5,1.3-2.3c0.5-1,1.3-1.9,2-2.8c0.5-0.6,1.6-1.1,1.8-1.9
			c0.1-0.4-0.1-0.8,0.1-1.3c0.2-0.4,0.4-0.7,0.6-1c0.1-0.2,0.2-0.8,0.3-1c0.1-0.5,0-0.4-0.2-0.8C208.3,239.1,208,238,207.4,237.7z"
			/>
		<path class="st0" d="M151,293.7l-0.1,0.1c0,0,0,0,0,0C151,293.8,151,293.7,151,293.7z"/>
		<path class="st0" d="M150.6,295.9c0,0.3,0,0.7,0,1c1,0.2,1.3-2.8,0.3-3c0,0,0,0-0.1,0c-0.1,0.3,0,0.6-0.1,0.8
			c-0.1,0.3-0.3,0.5-0.4,0.8C150.4,295.8,150.6,295.7,150.6,295.9z"/>
	</g>
</g>
<g id="Graphic_13_">
	<g>
		<path class="st1" d="M302.2,309.9c-39.2,0-74.6-16.7-99.3-43.3h198.6C376.8,293.3,341.4,309.9,302.2,309.9z"/>
		<g>
			<path class="st2" d="M363.3,266.6h37.9c-24.7,26.7-60.1,43.3-99.3,43.3c-6.4,0-12.7-0.5-18.9-1.3
				C314.6,304.2,342.7,288.9,363.3,266.6z"/>
		</g>
	</g>
	<g>
		<path class="st3" d="M270.4,39.1c-50.3,0-94.3,27.5-117.6,68.2H388C364.7,66.5,320.8,39.1,270.4,39.1z"/>
		<g>
			<path class="st4" d="M287.3,40.1c-5.5-0.7-11.2-1.1-16.9-1.1c-50.3,0-94.3,27.5-117.6,68.2h33.8
				C207.3,71.2,244.1,45.5,287.3,40.1z"/>
		</g>
	</g>
	<g>
		<path class="st5" d="M141.5,216.5c6.1,18.9,16.3,35.9,29.5,50.1h198.6c13.2-14.2,23.4-31.3,29.5-50.1H141.5z"/>
		<g>
			<path class="st6" d="M141.8,216.5c6.1,18.9,16.3,35.9,29.5,50.1h31.9c-13.2-14.2-23.4-31.3-29.5-50.1H141.8z"/>
		</g>
	</g>
	<g>
		<path class="st7" d="M163.8,174.5c0-24.5,6.5-47.4,17.8-67.2h235.2c11.3,19.8,17.8,42.7,17.8,67.2c0,14.6-2.3,28.7-6.6,41.9H170.4
			C166.1,203.2,163.8,189.2,163.8,174.5z"/>
		<g>
			<path class="st8" d="M387.9,107.3h28.3c11.3,19.8,17.8,42.7,17.8,67.2c0,14.6-2.3,28.7-6.6,41.9h-28.3
				c4.3-13.2,6.6-27.3,6.6-41.9C405.7,150.1,399.2,127.1,387.9,107.3z"/>
		</g>
	</g>
</g>
<g>
	<rect x="482" y="83" class="st9" width="952" height="186"/>
	<path class="st10" d="M499,83h24.4v73.3h0.5L590.4,83h29l-51.7,56.2l57.1,86.2h-29l-44-69.6L523.5,182v43.4H499V83z"/>
	<path class="st10" d="M635.8,174.6c0-10.7,1-18.9,3-24.7c2.1-5.6,5.2-10.3,9.5-14.2c3.2-3.4,7.6-6.4,13.3-9
		c5.6-2.5,12.8-3.9,21.6-4c9.1,0.1,16.4,1.5,22,4c5.5,2.7,9.8,5.7,12.8,9.1c4.6,3.8,7.8,8.6,9.7,14.2c1.8,5.7,2.8,13.9,2.8,24.6
		c0,10.7-0.9,18.8-2.8,24.4c-1.9,5.6-5.2,10.4-9.7,14.6c-1.5,1.5-3.3,3-5.4,4.4c-1.9,1.6-4.4,3-7.4,4.2c-5.6,2.8-12.9,4.3-22,4.4
		c-8.8-0.1-16-1.6-21.6-4.4c-5.7-2.5-10.1-5.4-13.3-8.6c-4.3-4.1-7.5-9-9.5-14.6C636.8,193.4,635.8,185.3,635.8,174.6z M707.4,174.8
		c0-7.3-0.4-12.5-1.1-15.9c-0.7-3.2-2.3-6-4.5-8.4c-1.7-2.3-4.2-4.1-7.5-5.4c-3.2-1.4-6.9-2.1-11.1-2.1c-3.9,0-7.5,0.7-10.9,2.1
		c-3.2,1.3-5.8,3.1-7.8,5.4c-2,2.4-3.4,5.2-4.3,8.4c-0.9,3.3-1.3,8.6-1.3,15.7c0,7.1,0.4,12.2,1.3,15.5c0.9,3.3,2.3,6.3,4.3,8.8
		c2,2,4.6,3.7,7.8,5.2c3.3,1.4,7,2.2,10.9,2.2c4.2,0,7.9-0.7,11.1-2.2c3.3-1.5,5.8-3.2,7.5-5.2c2.3-2.5,3.8-5.5,4.5-8.8
		C707.1,186.8,707.4,181.7,707.4,174.8z"/>
	<path class="st10" d="M752.8,174.6c0-10.7,1-18.9,3-24.7c2.1-5.6,5.2-10.3,9.5-14.2c3.2-3.4,7.6-6.4,13.3-9
		c5.6-2.5,12.8-3.9,21.6-4c9.1,0.1,16.4,1.5,22,4c5.5,2.7,9.8,5.7,12.8,9.1c4.6,3.8,7.8,8.6,9.7,14.2c1.8,5.7,2.8,13.9,2.8,24.6
		c0,10.7-0.9,18.8-2.8,24.4c-1.9,5.6-5.2,10.4-9.7,14.6c-1.5,1.5-3.3,3-5.4,4.4c-1.9,1.6-4.4,3-7.4,4.2c-5.6,2.8-12.9,4.3-22,4.4
		c-8.8-0.1-16-1.6-21.6-4.4c-5.7-2.5-10.1-5.4-13.3-8.6c-4.3-4.1-7.4-9-9.5-14.6C753.8,193.4,752.8,185.3,752.8,174.6z M824.4,174.8
		c0-7.3-0.4-12.5-1.1-15.9c-0.7-3.2-2.3-6-4.5-8.4c-1.7-2.3-4.2-4.1-7.5-5.4c-3.2-1.4-6.9-2.1-11.1-2.1c-3.9,0-7.5,0.7-10.9,2.1
		c-3.2,1.3-5.8,3.1-7.8,5.4c-2,2.4-3.4,5.2-4.3,8.4c-0.9,3.3-1.3,8.6-1.3,15.7c0,7.1,0.4,12.2,1.3,15.5c0.9,3.3,2.3,6.3,4.3,8.8
		c2,2,4.6,3.7,7.8,5.2c3.3,1.4,7,2.2,10.9,2.2c4.2,0,7.9-0.7,11.1-2.2c3.3-1.5,5.8-3.2,7.5-5.2c2.3-2.5,3.8-5.5,4.5-8.8
		C824.1,186.8,824.4,181.7,824.4,174.8z"/>
	<path class="st10" d="M876.9,93.2h23.1V124h16.8v15.6h-16.8v59.1c-0.2,5.1,2.6,7.7,8.2,7.5h8.6v19.1h-12c-8.1,0-14.7-2.2-19.9-6.6
		c-5.3-4.2-8-10.3-8-18.3v-60.8h-11.6V124h11.6V93.2z"/>
	<path class="st10" d="M943.9,194.4c9.4,8.7,21.5,13,36.4,13c6.7,0,12.1-1.1,16.3-3.4c4.2-2.3,6.3-5.5,6.3-9.6
		c0-3.6-1.3-6.2-3.8-7.6c-2.6-1.5-6-2.3-10.3-2.4l-20.4-1.6c-9.7-0.8-17.6-3.6-23.6-8.6c-6.2-4.8-9.4-11.6-9.5-20.2
		c0.1-10.4,4.3-18.2,12.5-23.4c8-5.2,18.1-7.8,30.3-7.8c5.3,0,10.1,0.3,14.3,0.9c4.2,0.6,8.2,1.6,11.9,2.7c7.1,2.5,13.4,6,19.1,10.2
		l-14.3,14.7c-4.4-2.8-9.1-5.2-14.1-7c-4.9-1.6-10.5-2.5-16.9-2.5c-7.2,0-12.3,1.1-15.2,3.4c-3,2.3-4.5,5.2-4.5,8.8
		c-0.2,2.3,1,4.3,3.4,6c2.2,1.9,6.1,3.1,11.8,3.6l19.1,1.3c12,0.8,20.6,4,25.9,9.6c5,5.5,7.4,12.4,7.4,20.8
		c-0.1,9.8-4.7,17.4-13.6,22.8c-8.9,5.5-20.2,8.3-34,8.4c-18.7,0-35.6-6.1-50.6-18.2L943.9,194.4z"/>
	<path class="st10" d="M1054.2,93.2h23.1V124h16.8v15.6h-16.8v59.1c-0.2,5.1,2.6,7.7,8.2,7.5h8.6v19.1h-12c-8.1,0-14.7-2.2-19.9-6.6
		c-5.3-4.2-8-10.3-8-18.3v-60.8h-11.6V124h11.6V93.2z"/>
	<path class="st10" d="M1117.9,124h23.1v10.7h0.5c7.6-8,17.6-12,29.9-12c9.2,0.1,17.3,2.7,24.1,7.8l-16.8,17.6
		c-4.9-3.4-9.9-5.1-15.2-5.1c-5.9,0-11,1.7-15.2,5.1c-4.7,3.3-7.2,8.7-7.3,16.1v61.1h-23.1V124z"/>
	<path class="st10" d="M1265,216.4h-0.4c-2.1,3.4-5.5,6-10,7.6c-4.4,1.7-10.5,2.5-18.4,2.5c-12.8-0.1-22.7-3.1-29.6-9
		c-7.3-5.7-11-13.1-11-22c0-8.5,3.2-15.6,9.5-21.2c6.3-5.7,15.6-8.7,27.9-8.8h32v-10.7c0.2-9-7.7-13.3-23.6-13.1
		c-5.8,0-10.3,0.5-13.6,1.6c-3.5,1.2-6.2,3.3-8.2,6.3l-18.1-12.2c8.8-10.1,21.7-15,38.8-14.8c14.4-0.1,26,2.3,34.6,7.2
		c8.6,5.1,13,13.8,13.2,26.2v69.2H1265V216.4z M1265,182.4h-27.7c-13.5,0.3-20.1,4.3-20,12.2c0,3.5,1.7,6.4,5.2,8.8
		c3.3,2.7,8.8,4,16.5,4c9.7,0.1,16.5-0.9,20.5-3c3.6-2.2,5.4-7,5.4-14.7V182.4z"/>
	<path class="st10" d="M1321.7,124h23.1v10.5c7.7-7.6,17.6-11.5,29.6-11.8c14.1,0.3,24.4,4.8,30.9,13.3c3.2,3.2,5.3,7.4,6.5,12.6
		c1.1,5.1,1.7,13.9,1.7,26.2c0,12-0.6,20.6-1.7,25.8c-1.2,5.2-3.4,9.5-6.5,12.8c-3.2,3.9-7.3,7-12.5,9.4c-5.1,2.4-11.2,3.7-18.4,3.8
		c-5.9,0-11.2-1.1-15.8-3.4c-5-2.1-9.6-4.9-13.8-8.5v51.8h-23.1V124z M1367.4,206.3c5.5,0,9.8-0.9,13-2.7c3.2-1.9,5.4-4.3,6.8-7.3
		c1.5-3.1,2.5-6.5,3-10.2c0.1-3.7,0.2-7.4,0.2-11.3c0-4-0.1-8-0.2-11.9c-0.5-3.9-1.5-7.3-3-10.2c-1.3-3.1-3.6-5.5-6.8-7.3
		c-3.2-1.6-7.5-2.4-13-2.4c-5.2,0-9.3,0.9-12.3,2.8c-3.2,1.9-5.5,4.4-7,7.4c-1.4,3.1-2.3,6.4-2.8,10c-0.4,3.8-0.7,7.6-0.7,11.5
		c0,3.6,0.2,7.2,0.7,10.8c0.4,3.8,1.4,7.2,2.8,10.3c1.5,3.1,3.8,5.6,7,7.4C1358.2,205.3,1362.3,206.3,1367.4,206.3z"/>
</g>
<g>
</g>
<g>
</g>
<g>
</g>
<g>
</g>
<g>
</g>
<g>
</g>
<g>
</g>
<g>
</g>
<g>
</g>
<g>
</g>
<g>
</g>
<g>
</g>
<g>
</g>
<g>
</g>
<g>
</g>
</svg>
